<?xml version="1.0" encoding="UTF-8" standalone="no"?>
<!DOCTYPE svg PUBLIC "-//W3C//DTD SVG 1.0//EN" "http://www.w3.org/TR/2001/PR-SVG-20010719/DTD/svg10.dtd">
<svg width="30cm" height="27cm" viewBox="74 98 585 535" xmlns="http://www.w3.org/2000/svg" xmlns:xlink="http://www.w3.org/1999/xlink">
  <g>
    <rect style="fill: #ffffff" x="107" y="529" width="260" height="103"/>
    <rect style="fill: none; fill-opacity:0; stroke-width: 2; stroke: #000000" x="107" y="529" width="260" height="103"/>
  </g>
  <g>
    <rect style="fill: #ffffff" x="266" y="99" width="201.9" height="36" rx="20" ry="20"/>
    <rect style="fill: none; fill-opacity:0; stroke-width: 2; stroke: #000000" x="266" y="99" width="201.9" height="36" rx="20" ry="20"/>
    <text font-size="12.8" style="fill: #000000;text-anchor:middle;font-family:sans-serif;font-style:normal;font-weight:normal" x="366.95" y="120.9">
      <tspan x="366.95" y="120.9">Auswahl aus einer Übersicht</tspan>
    </text>
  </g>
  <g>
    <polygon style="fill: #ffffff" points="304,166 417.8,166 429.8,178 429.8,200 304,200 "/>
    <polygon style="fill: none; fill-opacity:0; stroke-width: 2; stroke: #000000" points="304,166 417.8,166 429.8,178 429.8,200 304,200 "/>
    <polyline style="fill: none; fill-opacity:0; stroke-width: 1; stroke: #000000" points="417.8,166 417.8,178 429.8,178 "/>
    <text font-size="12.8" style="fill: #000000;text-anchor:start;font-family:monospace;font-style:normal;font-weight:normal" x="311" y="190.9">
      <tspan x="311" y="190.9">ÜbersichtsHTML</tspan>
    </text>
  </g>
  <g>
    <rect style="fill: #ffffff" x="287" y="300" width="162.75" height="52" rx="10" ry="10"/>
    <rect style="fill: none; fill-opacity:0; stroke-width: 2; stroke: #000000" x="287" y="300" width="162.75" height="52" rx="10" ry="10"/>
    <text font-size="12.8" style="fill: #000000;text-anchor:middle;font-family:sans-serif;font-style:normal;font-weight:normal" x="368.375" y="321.9">
      <tspan x="368.375" y="321.9">bankapp.subview : </tspan>
      <tspan x="368.375" y="337.9">subcomponentService</tspan>
    </text>
  </g>
  <g>
    <rect style="fill: #ffffff" x="75" y="383" width="172.55" height="36" rx="10" ry="10"/>
    <rect style="fill: none; fill-opacity:0; stroke-width: 2; stroke: #000000" x="75" y="383" width="172.55" height="36" rx="10" ry="10"/>
    <text font-size="12.8" style="fill: #000000;text-anchor:middle;font-family:sans-serif;font-style:normal;font-weight:normal" x="161.275" y="404.9">
      <tspan x="161.275" y="404.9">Einzelansichtskontroller</tspan>
    </text>
  </g>
  <g>
    <line style="fill: none; fill-opacity:0; stroke-width: 2; stroke: #000000" x1="366.95" y1="135" x2="366.918" y2="155"/>
    <polygon style="fill: #000000" points="361.918,154.992 366.902,165 371.918,155.008 "/>
    <polygon style="fill: none; fill-opacity:0; stroke-width: 2; stroke: #000000" points="361.918,154.992 366.902,165 371.918,155.008 "/>
  </g>
  <g>
    <line style="fill: none; fill-opacity:0; stroke-width: 2; stroke: #000000" x1="366.9" y1="200" x2="367.317" y2="222.002"/>
    <polygon style="fill: #000000" points="362.318,222.097 367.506,232 372.316,221.907 "/>
    <polygon style="fill: none; fill-opacity:0; stroke-width: 2; stroke: #000000" points="362.318,222.097 367.506,232 372.316,221.907 "/>
  </g>
  <g>
    <line style="fill: none; fill-opacity:0; stroke-width: 2; stroke: #000000" x1="367.525" y1="269" x2="368.074" y2="289.004"/>
    <polygon style="fill: #000000" points="363.075,289.141 368.348,299 373.072,288.867 "/>
    <polygon style="fill: none; fill-opacity:0; stroke-width: 2; stroke: #000000" points="363.075,289.141 368.348,299 373.072,288.867 "/>
  </g>
  <g>
    <polygon style="fill: #ffffff" points="289,455 433.6,455 445.6,467 445.6,489 289,489 "/>
    <polygon style="fill: none; fill-opacity:0; stroke-width: 2; stroke: #000000" points="289,455 433.6,455 445.6,467 445.6,489 289,489 "/>
    <polyline style="fill: none; fill-opacity:0; stroke-width: 1; stroke: #000000" points="433.6,455 433.6,467 445.6,467 "/>
    <text font-size="12.8" style="fill: #000000;text-anchor:start;font-family:monospace;font-style:normal;font-weight:normal" x="296" y="479.9">
      <tspan x="296" y="479.9">EinzelansichtsHTML</tspan>
    </text>
  </g>
  <g>
    <rect style="fill: #ffffff" x="265" y="233" width="205.05" height="36" rx="10" ry="10"/>
    <rect style="fill: none; fill-opacity:0; stroke-width: 2; stroke: #000000" x="265" y="233" width="205.05" height="36" rx="10" ry="10"/>
    <text font-size="12.8" style="fill: #000000;text-anchor:middle;font-family:sans-serif;font-style:normal;font-weight:normal" x="367.525" y="254.9">
      <tspan x="367.525" y="254.9">Topickomponentenkontroller</tspan>
    </text>
  </g>
  <g>
    <rect style="fill: #ffffff" x="265.5" y="384.4" width="205.05" height="36" rx="10" ry="10"/>
    <rect style="fill: none; fill-opacity:0; stroke-width: 2; stroke: #000000" x="265.5" y="384.4" width="205.05" height="36" rx="10" ry="10"/>
    <text font-size="12.8" style="fill: #000000;text-anchor:middle;font-family:sans-serif;font-style:normal;font-weight:normal" x="368.025" y="406.3">
      <tspan x="368.025" y="406.3">Topickomponentenkontroller</tspan>
    </text>
  </g>
  <g>
    <line style="fill: none; fill-opacity:0; stroke-width: 2; stroke: #000000" x1="368.025" y1="420.4" x2="367.53" y2="444.002"/>
    <polygon style="fill: #000000" points="362.532,443.898 367.321,454 372.529,444.107 "/>
    <polygon style="fill: none; fill-opacity:0; stroke-width: 2; stroke: #000000" points="362.532,443.898 367.321,454 372.529,444.107 "/>
  </g>
  <g>
    <rect style="fill: #ffffff" x="491.5" y="300" width="166.35" height="52" rx="10" ry="10"/>
    <rect style="fill: none; fill-opacity:0; stroke-width: 2; stroke: #000000" x="491.5" y="300" width="166.35" height="52" rx="10" ry="10"/>
    <text font-size="12.8" style="fill: #000000;text-anchor:middle;font-family:sans-serif;font-style:normal;font-weight:normal" x="574.675" y="321.9">
      <tspan x="574.675" y="321.9">bankapp.breadcrumb :</tspan>
      <tspan x="574.675" y="337.9">breadcrumbService</tspan>
    </text>
  </g>
  <g>
    <polygon style="fill: #ffffff" points="496.5,456 641.1,456 653.1,468 653.1,490 496.5,490 "/>
    <polygon style="fill: none; fill-opacity:0; stroke-width: 2; stroke: #000000" points="496.5,456 641.1,456 653.1,468 653.1,490 496.5,490 "/>
    <polyline style="fill: none; fill-opacity:0; stroke-width: 1; stroke: #000000" points="641.1,456 641.1,468 653.1,468 "/>
    <text font-size="12.8" style="fill: #000000;text-anchor:start;font-family:monospace;font-style:normal;font-weight:normal" x="503.5" y="480.9">
      <tspan x="503.5" y="480.9">mainSearchbar.html</tspan>
    </text>
  </g>
  <g>
    <rect style="fill: #ffffff" x="491" y="378.4" width="166.35" height="52" rx="10" ry="10"/>
    <rect style="fill: none; fill-opacity:0; stroke-width: 2; stroke: #000000" x="491" y="378.4" width="166.35" height="52" rx="10" ry="10"/>
    <text font-size="12.8" style="fill: #000000;text-anchor:middle;font-family:sans-serif;font-style:normal;font-weight:normal" x="574.175" y="400.3">
      <tspan x="574.175" y="400.3">bankapp.breadcrumb :</tspan>
      <tspan x="574.175" y="416.3">breadcrumbCtrl</tspan>
    </text>
  </g>
  <g>
    <line style="fill: none; fill-opacity:0; stroke-width: 2; stroke: #000000" x1="574.175" y1="430.4" x2="574.532" y2="445.003"/>
    <polygon style="fill: #000000" points="569.533,445.125 574.776,455 579.53,444.881 "/>
    <polygon style="fill: none; fill-opacity:0; stroke-width: 2; stroke: #000000" points="569.533,445.125 574.776,455 579.53,444.881 "/>
  </g>
  <g>
    <line style="fill: none; fill-opacity:0; stroke-width: 2; stroke-dasharray: 4; stroke: #000000" x1="368.375" y1="352" x2="368.144" y2="373.401"/>
    <polygon style="fill: #000000" points="363.144,373.347 368.036,383.4 373.144,373.455 "/>
    <polygon style="fill: none; fill-opacity:0; stroke-width: 2; stroke: #000000" points="363.144,373.347 368.036,383.4 373.144,373.455 "/>
  </g>
  <g>
    <polyline style="fill: none; fill-opacity:0; stroke-width: 2; stroke-dasharray: 8; stroke: #000000" points="161.275,364.764 161.275,355.5 161.55,355.5 161.55,344 "/>
    <polygon style="fill: #ffffff" points="153.275,364.764 161.275,380.764 169.275,364.764 "/>
    <polygon style="fill: none; fill-opacity:0; stroke-width: 2; stroke: #000000" points="153.275,364.764 161.275,380.764 169.275,364.764 "/>
  </g>
  <g>
    <ellipse style="fill: #ffffff" cx="161.55" cy="312" rx="50.55" ry="32"/>
    <ellipse style="fill: none; fill-opacity:0; stroke-width: 2; stroke: #000000" cx="161.55" cy="312" rx="50.55" ry="32"/>
    <text font-size="12.8" style="fill: #000000;text-anchor:middle;font-family:sans-serif;font-style:normal;font-weight:normal" x="161.55" y="307.9">
      <tspan x="161.55" y="307.9">Rest</tspan>
      <tspan x="161.55" y="323.9">Abfrage</tspan>
    </text>
  </g>
  <g>
    <polyline style="fill: none; fill-opacity:0; stroke-width: 2; stroke: #000000" points="161.275,430 161.275,472 278,472 "/>
    <polygon style="fill: #000000" points="166.275,430 161.275,420 156.275,430 "/>
    <polygon style="fill: none; fill-opacity:0; stroke-width: 2; stroke: #000000" points="166.275,430 161.275,420 156.275,430 "/>
    <polygon style="fill: #000000" points="278,477 288,472 278,467 "/>
    <polygon style="fill: none; fill-opacity:0; stroke-width: 2; stroke: #000000" points="278,477 288,472 278,467 "/>
  </g>
  <g>
    <polyline style="fill: none; fill-opacity:0; stroke-width: 2; stroke: #000000" points="449.75,326 450.75,326 490.5,326 480.5,326 "/>
    <polygon style="fill: #000000" points="480.5,331 490.5,326 480.5,321 "/>
    <polygon style="fill: none; fill-opacity:0; stroke-width: 2; stroke: #000000" points="480.5,331 490.5,326 480.5,321 "/>
  </g>
  <g>
    <line style="fill: none; fill-opacity:0; stroke-width: 2; stroke-dasharray: 4; stroke: #000000" x1="574.675" y1="352" x2="574.383" y2="367.402"/>
    <polygon style="fill: #000000" points="569.384,367.307 574.194,377.4 579.382,367.497 "/>
    <polygon style="fill: none; fill-opacity:0; stroke-width: 2; stroke: #000000" points="569.384,367.307 574.194,377.4 579.382,367.497 "/>
  </g>
  <g>
    <line style="fill: none; fill-opacity:0; stroke-width: 2; stroke: #000000" x1="241.4" y1="564" x2="319.001" y2="564.876"/>
    <polygon style="fill: #000000" points="318.944,569.876 329,564.989 319.057,559.876 "/>
    <polygon style="fill: none; fill-opacity:0; stroke-width: 2; stroke: #000000" points="318.944,569.876 329,564.989 319.057,559.876 "/>
  </g>
  <g>
    <line style="fill: none; fill-opacity:0; stroke-width: 2; stroke-dasharray: 4; stroke: #000000" x1="241.4" y1="599" x2="320.5" y2="598.665"/>
    <polygon style="fill: #000000" points="320.521,603.665 330.5,598.622 320.479,593.665 "/>
    <polygon style="fill: none; fill-opacity:0; stroke-width: 2; stroke: #000000" points="320.521,603.665 330.5,598.622 320.479,593.665 "/>
  </g>
  <text font-size="12.7998" style="fill: #000000;text-anchor:start;font-family:sans-serif;font-style:normal;font-weight:normal" x="129.102" y="568">
    <tspan x="129.102" y="568">Datensendung</tspan>
  </text>
  <text font-size="12.7998" style="fill: #000000;text-anchor:start;font-family:sans-serif;font-style:normal;font-weight:normal" x="132.102" y="602">
    <tspan x="132.102" y="602">Datenabfrage</tspan>
  </text>
  <g>
    <rect style="fill: #ffffff" x="124.102" y="509" width="109" height="36"/>
    <rect style="fill: none; fill-opacity:0; stroke-width: 2; stroke: #000000" x="124.102" y="509" width="109" height="36"/>
  </g>
  <text font-size="12.7998" style="fill: #000000;text-anchor:middle;font-family:sans-serif;font-style:normal;font-weight:normal" x="178.602" y="531.45">
    <tspan x="178.602" y="531.45">Legende</tspan>
  </text>
</svg>
