<?xml version="1.0" encoding="UTF-8" standalone="no"?>
<!DOCTYPE svg PUBLIC "-//W3C//DTD SVG 1.0//EN" "http://www.w3.org/TR/2001/PR-SVG-20010719/DTD/svg10.dtd">
<svg width="44cm" height="31cm" viewBox="118 -43 868 617" xmlns="http://www.w3.org/2000/svg" xmlns:xlink="http://www.w3.org/1999/xlink">
  <g>
    <polygon style="fill: #ffa500" points="119,10 648.6,10 660.6,22 660.6,572 119,572 "/>
    <polygon style="fill: none; fill-opacity:0; stroke-width: 2; stroke: #000000" points="119,10 648.6,10 660.6,22 660.6,572 119,572 "/>
    <polyline style="fill: none; fill-opacity:0; stroke-width: 1; stroke: #000000" points="648.6,10 648.6,22 660.6,22 "/>
    <text font-size="12.8" style="fill: #000000;text-anchor:start;font-family:monospace;font-style:normal;font-weight:normal" x="126" y="34.9">
      <tspan x="126" y="34.9">&lt;div ng-app="Exampleapp"&gt;</tspan>
      <tspan x="126" y="50.9">    &lt;div ng-controller="Ctrl1"                                      </tspan>
      <tspan x="126" y="66.9"></tspan>
      <tspan x="126" y="82.9"></tspan>
      <tspan x="126" y="98.9"></tspan>
      <tspan x="126" y="114.9"></tspan>
      <tspan x="126" y="130.9"></tspan>
      <tspan x="126" y="146.9"></tspan>
      <tspan x="126" y="162.9"></tspan>
      <tspan x="126" y="178.9"></tspan>
      <tspan x="126" y="194.9"></tspan>
      <tspan x="126" y="210.9"></tspan>
      <tspan x="126" y="226.9"></tspan>
      <tspan x="126" y="242.9"></tspan>
      <tspan x="126" y="258.9"></tspan>
      <tspan x="126" y="274.9"></tspan>
      <tspan x="126" y="290.9"></tspan>
      <tspan x="126" y="306.9"></tspan>
      <tspan x="126" y="322.9"></tspan>
      <tspan x="126" y="338.9"></tspan>
      <tspan x="126" y="354.9"></tspan>
      <tspan x="126" y="370.9"></tspan>
      <tspan x="126" y="386.9"></tspan>
      <tspan x="126" y="402.9"></tspan>
      <tspan x="126" y="418.9"></tspan>
      <tspan x="126" y="434.9"></tspan>
      <tspan x="126" y="450.9"></tspan>
      <tspan x="126" y="466.9"></tspan>
      <tspan x="126" y="482.9"></tspan>
      <tspan x="126" y="498.9"></tspan>
      <tspan x="126" y="514.9"></tspan>
      <tspan x="126" y="530.9"></tspan>
      <tspan x="126" y="546.9">    &lt;/div&gt;</tspan>
      <tspan x="126" y="562.9">&lt;/div&gt;</tspan>
    </text>
  </g>
  <g>
    <rect style="fill: #ffffff" x="744" y="-6" width="240" height="409"/>
    <rect style="fill: none; fill-opacity:0; stroke-width: 2; stroke: #000000" x="744" y="-6" width="240" height="409"/>
    <rect style="fill: #ffffff" x="744" y="-42" width="81" height="36"/>
    <rect style="fill: none; fill-opacity:0; stroke-width: 2; stroke: #000000" x="744" y="-42" width="81" height="36"/>
    <text font-size="12.7998" style="fill: #000000;text-anchor:start;font-family:monospace;font-style:normal;font-weight:normal" x="746" y="-27">&lt;&lt;module&gt;&gt;</text>
    <text font-size="12.7998" style="fill: #000000;text-anchor:start;font-family:monospace;font-style:normal;font-weight:normal" x="746" y="-11">Exampleapp</text>
  </g>
  <g>
    <rect style="fill: #ffa500" x="778" y="22" width="171.7" height="44"/>
    <rect style="fill: none; fill-opacity:0; stroke-width: 2; stroke: #000000" x="778" y="22" width="171.7" height="44"/>
    <text font-size="12.8" style="fill: #000000;text-anchor:middle;font-family:monospace;font-style:normal;font-weight:normal" x="863.85" y="38">&lt;&lt;controller&gt;&gt;</text>
    <text font-size="16" style="fill: #000000;text-anchor:middle;font-family:sans-serif;font-style:normal;font-weight:700" x="863.85" y="57">Ctrl1</text>
    <rect style="fill: #ffa500" x="778" y="66" width="171.7" height="8"/>
    <rect style="fill: none; fill-opacity:0; stroke-width: 2; stroke: #000000" x="778" y="66" width="171.7" height="8"/>
    <rect style="fill: #ffa500" x="778" y="74" width="171.7" height="69"/>
    <rect style="fill: none; fill-opacity:0; stroke-width: 2; stroke: #000000" x="778" y="74" width="171.7" height="69"/>
    <text font-size="12.8" style="fill: #000000;text-anchor:start;font-family:monospace;font-style:normal;font-weight:normal" x="781" y="88">#&lt;&lt;function&gt;&gt; click()</text>
    <text font-size="11.2" style="fill: #000000;text-anchor:start;font-family:sans-serif;font-style:normal;font-weight:normal" x="781" y="102.5">{</text>
    <text font-size="11.2" style="fill: #000000;text-anchor:start;font-family:sans-serif;font-style:normal;font-weight:normal" x="781" y="116.5">alert(one)</text>
    <text font-size="11.2" style="fill: #000000;text-anchor:start;font-family:sans-serif;font-style:normal;font-weight:normal" x="781" y="130.5">}</text>
  </g>
  <g>
    <rect style="fill: #90ee90" x="780.5" y="316.4" width="171.7" height="44"/>
    <rect style="fill: none; fill-opacity:0; stroke-width: 2; stroke: #000000" x="780.5" y="316.4" width="171.7" height="44"/>
    <text font-size="12.8" style="fill: #000000;text-anchor:middle;font-family:monospace;font-style:normal;font-weight:normal" x="866.35" y="332.4">&lt;&lt;controller&gt;&gt;</text>
    <text font-size="16" style="fill: #000000;text-anchor:middle;font-family:sans-serif;font-style:normal;font-weight:700" x="866.35" y="351.4">Ctrl3</text>
    <rect style="fill: #90ee90" x="780.5" y="360.4" width="171.7" height="8"/>
    <rect style="fill: none; fill-opacity:0; stroke-width: 2; stroke: #000000" x="780.5" y="360.4" width="171.7" height="8"/>
    <rect style="fill: #90ee90" x="780.5" y="368.4" width="171.7" height="8"/>
    <rect style="fill: none; fill-opacity:0; stroke-width: 2; stroke: #000000" x="780.5" y="368.4" width="171.7" height="8"/>
  </g>
  <g>
    <polygon style="fill: #ffc0cb" points="178.5,97.4 600.3,97.4 612.3,109.4 612.3,227.4 178.5,227.4 "/>
    <polygon style="fill: none; fill-opacity:0; stroke-width: 2; stroke: #000000" points="178.5,97.4 600.3,97.4 612.3,109.4 612.3,227.4 178.5,227.4 "/>
    <polyline style="fill: none; fill-opacity:0; stroke-width: 1; stroke: #000000" points="600.3,97.4 600.3,109.4 612.3,109.4 "/>
    <text font-size="12.8" style="fill: #000000;text-anchor:start;font-family:monospace;font-style:normal;font-weight:normal" x="185.5" y="122.3">
      <tspan x="185.5" y="122.3">&lt;div ng-controller="Ctrl2"&gt;                           </tspan>
      <tspan x="185.5" y="138.3"></tspan>
      <tspan x="185.5" y="154.3"></tspan>
      <tspan x="185.5" y="170.3"></tspan>
      <tspan x="185.5" y="186.3"></tspan>
      <tspan x="185.5" y="202.3"></tspan>
      <tspan x="185.5" y="218.3"></tspan>
    </text>
  </g>
  <g>
    <polygon style="fill: #ffffff" points="186,171 196,161 394.35,161 394.35,197 384.35,207 186,207 186,171 "/>
    <polygon style="fill: none; fill-opacity:0; stroke-width: 2; stroke: #000000" points="186,171 196,161 394.35,161 394.35,197 384.35,207 186,207 186,171 "/>
    <line style="fill: none; fill-opacity:0; stroke-width: 2; stroke: #000000" x1="186" y1="171" x2="384.35" y2="171"/>
    <line style="fill: none; fill-opacity:0; stroke-width: 2; stroke: #000000" x1="384.35" y1="171" x2="394.35" y2="161"/>
    <line style="fill: none; fill-opacity:0; stroke-width: 2; stroke: #000000" x1="384.35" y1="171" x2="384.35" y2="207"/>
    <text font-size="12.8" style="fill: #000000;text-anchor:start;font-family:sans-serif;font-style:normal;font-weight:normal" x="196" y="192.9">
      <tspan x="196" y="192.9">&lt;button ng-click="click()"&gt;</tspan>
    </text>
    <line style="fill: none; fill-opacity:0; stroke-width: 1; stroke: #000000" x1="196" y1="195.9" x2="374.35" y2="195.9"/>
  </g>
  <g>
    <polygon style="fill: #90ee90" points="178,255 599.8,255 611.8,267 611.8,401 178,401 "/>
    <polygon style="fill: none; fill-opacity:0; stroke-width: 2; stroke: #000000" points="178,255 599.8,255 611.8,267 611.8,401 178,401 "/>
    <polyline style="fill: none; fill-opacity:0; stroke-width: 1; stroke: #000000" points="599.8,255 599.8,267 611.8,267 "/>
    <text font-size="12.8" style="fill: #000000;text-anchor:start;font-family:monospace;font-style:normal;font-weight:normal" x="185" y="279.9">
      <tspan x="185" y="279.9">&lt;div ng-controller="Ctrl3"&gt;                           </tspan>
      <tspan x="185" y="295.9"></tspan>
      <tspan x="185" y="311.9"></tspan>
      <tspan x="185" y="327.9"></tspan>
      <tspan x="185" y="343.9"></tspan>
      <tspan x="185" y="359.9"></tspan>
      <tspan x="185" y="375.9"></tspan>
      <tspan x="185" y="391.9">&lt;/div&gt;</tspan>
    </text>
  </g>
  <g>
    <polygon style="fill: #ffffff" points="190.5,332.4 200.5,322.4 398.85,322.4 398.85,358.4 388.85,368.4 190.5,368.4 190.5,332.4 "/>
    <polygon style="fill: none; fill-opacity:0; stroke-width: 2; stroke: #000000" points="190.5,332.4 200.5,322.4 398.85,322.4 398.85,358.4 388.85,368.4 190.5,368.4 190.5,332.4 "/>
    <line style="fill: none; fill-opacity:0; stroke-width: 2; stroke: #000000" x1="190.5" y1="332.4" x2="388.85" y2="332.4"/>
    <line style="fill: none; fill-opacity:0; stroke-width: 2; stroke: #000000" x1="388.85" y1="332.4" x2="398.85" y2="322.4"/>
    <line style="fill: none; fill-opacity:0; stroke-width: 2; stroke: #000000" x1="388.85" y1="332.4" x2="388.85" y2="368.4"/>
    <text font-size="12.8" style="fill: #000000;text-anchor:start;font-family:sans-serif;font-style:normal;font-weight:normal" x="200.5" y="354.3">
      <tspan x="200.5" y="354.3">&lt;button ng-click="click()"&gt;</tspan>
    </text>
    <line style="fill: none; fill-opacity:0; stroke-width: 1; stroke: #000000" x1="200.5" y1="357.3" x2="378.85" y2="357.3"/>
  </g>
  <g>
    <polygon style="fill: #ffffff" points="193.5,474.4 203.5,464.4 401.85,464.4 401.85,500.4 391.85,510.4 193.5,510.4 193.5,474.4 "/>
    <polygon style="fill: none; fill-opacity:0; stroke-width: 2; stroke: #000000" points="193.5,474.4 203.5,464.4 401.85,464.4 401.85,500.4 391.85,510.4 193.5,510.4 193.5,474.4 "/>
    <line style="fill: none; fill-opacity:0; stroke-width: 2; stroke: #000000" x1="193.5" y1="474.4" x2="391.85" y2="474.4"/>
    <line style="fill: none; fill-opacity:0; stroke-width: 2; stroke: #000000" x1="391.85" y1="474.4" x2="401.85" y2="464.4"/>
    <line style="fill: none; fill-opacity:0; stroke-width: 2; stroke: #000000" x1="391.85" y1="474.4" x2="391.85" y2="510.4"/>
    <text font-size="12.8" style="fill: #000000;text-anchor:start;font-family:sans-serif;font-style:normal;font-weight:normal" x="203.5" y="496.3">
      <tspan x="203.5" y="496.3">&lt;button ng-click="click()"&gt;</tspan>
    </text>
    <line style="fill: none; fill-opacity:0; stroke-width: 1; stroke: #000000" x1="203.5" y1="499.3" x2="381.85" y2="499.3"/>
  </g>
  <text font-size="12.8" style="fill: #000000;text-anchor:start;font-family:sans-serif;font-style:normal;font-weight:normal" x="1019.5" y="471">
    <tspan x="1019.5" y="471"></tspan>
  </text>
  <g>
    <rect style="fill: #ffc0cb" x="499" y="106" width="80" height="36" rx="20" ry="20"/>
    <rect style="fill: none; fill-opacity:0; stroke-width: 2; stroke: #000000" x="499" y="106" width="80" height="36" rx="20" ry="20"/>
    <text font-size="12.8" style="fill: #000000;text-anchor:middle;font-family:sans-serif;font-style:normal;font-weight:normal" x="539" y="127.9">
      <tspan x="539" y="127.9">two</tspan>
    </text>
  </g>
  <g>
    <polyline style="fill: none; fill-opacity:0; stroke-width: 2; stroke: #000000" points="499,124 447.178,124 447.178,189 399.829,189 "/>
    <polyline style="fill: none; fill-opacity:0; stroke-width: 2; stroke: #000000" points="407.593,184 397.593,189 407.593,194 "/>
  </g>
  <g>
    <rect style="fill: #ffa500" x="506.5" y="269.4" width="80" height="36" rx="20" ry="20"/>
    <rect style="fill: none; fill-opacity:0; stroke-width: 2; stroke: #000000" x="506.5" y="269.4" width="80" height="36" rx="20" ry="20"/>
    <text font-size="12.8" style="fill: #000000;text-anchor:middle;font-family:sans-serif;font-style:normal;font-weight:normal" x="546.5" y="291.3">
      <tspan x="546.5" y="291.3">one</tspan>
    </text>
  </g>
  <g>
    <polyline style="fill: none; fill-opacity:0; stroke-width: 2; stroke: #000000" points="506.5,287.4 453.178,287.4 453.178,350.4 404.329,350.4 "/>
    <polyline style="fill: none; fill-opacity:0; stroke-width: 2; stroke: #000000" points="412.093,345.4 402.093,350.4 412.093,355.4 "/>
  </g>
  <g>
    <rect style="fill: #ffa500" x="507.5" y="414.4" width="80" height="36" rx="20" ry="20"/>
    <rect style="fill: none; fill-opacity:0; stroke-width: 2; stroke: #000000" x="507.5" y="414.4" width="80" height="36" rx="20" ry="20"/>
    <text font-size="12.8" style="fill: #000000;text-anchor:middle;font-family:sans-serif;font-style:normal;font-weight:normal" x="547.5" y="436.3">
      <tspan x="547.5" y="436.3">one</tspan>
    </text>
  </g>
  <g>
    <polyline style="fill: none; fill-opacity:0; stroke-width: 2; stroke: #000000" points="507.5,432.4 455.178,432.4 455.178,492.4 407.329,492.4 "/>
    <polyline style="fill: none; fill-opacity:0; stroke-width: 2; stroke: #000000" points="415.093,487.4 405.093,492.4 415.093,497.4 "/>
  </g>
  <g>
    <rect style="fill: #ffc0cb" x="778.5" y="166.4" width="171.7" height="44"/>
    <rect style="fill: none; fill-opacity:0; stroke-width: 2; stroke: #000000" x="778.5" y="166.4" width="171.7" height="44"/>
    <text font-size="12.8" style="fill: #000000;text-anchor:middle;font-family:monospace;font-style:normal;font-weight:normal" x="864.35" y="182.4">&lt;&lt;controller&gt;&gt;</text>
    <text font-size="16" style="fill: #000000;text-anchor:middle;font-family:sans-serif;font-style:normal;font-weight:700" x="864.35" y="201.4">Ctrl2</text>
    <rect style="fill: #ffc0cb" x="778.5" y="210.4" width="171.7" height="8"/>
    <rect style="fill: none; fill-opacity:0; stroke-width: 2; stroke: #000000" x="778.5" y="210.4" width="171.7" height="8"/>
    <rect style="fill: #ffc0cb" x="778.5" y="218.4" width="171.7" height="69"/>
    <rect style="fill: none; fill-opacity:0; stroke-width: 2; stroke: #000000" x="778.5" y="218.4" width="171.7" height="69"/>
    <text font-size="12.8" style="fill: #000000;text-anchor:start;font-family:monospace;font-style:normal;font-weight:normal" x="781.5" y="232.4">#&lt;&lt;function&gt;&gt; click()</text>
    <text font-size="11.2" style="fill: #000000;text-anchor:start;font-family:sans-serif;font-style:normal;font-weight:normal" x="781.5" y="246.9">{</text>
    <text font-size="11.2" style="fill: #000000;text-anchor:start;font-family:sans-serif;font-style:normal;font-weight:normal" x="781.5" y="260.9">alert(two)</text>
    <text font-size="11.2" style="fill: #000000;text-anchor:start;font-family:sans-serif;font-style:normal;font-weight:normal" x="781.5" y="274.9">}</text>
  </g>
</svg>
