<?xml version="1.0" encoding="UTF-8" standalone="no"?>
<!DOCTYPE svg PUBLIC "-//W3C//DTD SVG 1.0//EN" "http://www.w3.org/TR/2001/PR-SVG-20010719/DTD/svg10.dtd">
<svg width="37cm" height="20cm" viewBox="139 149 722 384" xmlns="http://www.w3.org/2000/svg" xmlns:xlink="http://www.w3.org/1999/xlink">
  <g>
    <rect style="fill: #ffffff" x="152" y="150" width="708" height="381"/>
    <rect style="fill: none; fill-opacity:0; stroke-width: 2; stroke: #000000" x="152" y="150" width="708" height="381"/>
  </g>
  <g>
    <rect style="fill: #add8e6" x="160" y="160" width="689" height="62" rx="10" ry="10"/>
    <rect style="fill: none; fill-opacity:0; stroke-width: 2; stroke-linejoin: round; stroke: #000000" x="160" y="160" width="689" height="62" rx="10" ry="10"/>
  </g>
  <g>
    <rect style="fill: #add8e6" x="161" y="231" width="78" height="164" rx="10" ry="10"/>
    <rect style="fill: none; fill-opacity:0; stroke-width: 2; stroke-linejoin: round; stroke: #000000" x="161" y="231" width="78" height="164" rx="10" ry="10"/>
  </g>
  <g>
    <rect style="fill: #add8e6" x="245" y="232" width="604" height="33" rx="10" ry="10"/>
    <rect style="fill: none; fill-opacity:0; stroke-width: 2; stroke-linejoin: round; stroke: #000000" x="245" y="232" width="604" height="33" rx="10" ry="10"/>
  </g>
  <g>
    <rect style="fill: #add8e6" x="244" y="272" width="601" height="251" rx="10" ry="10"/>
    <rect style="fill: none; fill-opacity:0; stroke-width: 2; stroke-linejoin: round; stroke: #000000" x="244" y="272" width="601" height="251" rx="10" ry="10"/>
  </g>
  <text font-size="12.8" style="fill: #000000;text-anchor:start;font-family:sans-serif;font-style:normal;font-weight:normal" x="504.5" y="191">
    <tspan x="504.5" y="191"></tspan>
  </text>
  <text font-size="22.5778" style="fill: #000000;text-anchor:end;font-family:sans-serif;font-style:normal;font-weight:normal" x="504.5" y="191">
    <tspan x="504.5" y="191">Kopfleiste</tspan>
  </text>
  <text font-size="22.5778" style="fill: #000000;text-anchor:middle;font-family:sans-serif;font-style:normal;font-weight:normal" x="547" y="256.325">
    <tspan x="547" y="256.325">Breadcrumb und Suchleiste</tspan>
  </text>
  <g>
    <rect style="fill: #add8e6" x="139.025" y="292" width="121.95" height="26.35"/>
    <text font-size="22.5778" style="fill: #000000;text-anchor:middle;font-family:sans-serif;font-style:normal;font-weight:normal" x="200" y="313">
      <tspan x="200" y="313">Navigation</tspan>
    </text>
  </g>
  <text font-size="12.8" style="fill: #000000;text-anchor:start;font-family:sans-serif;font-style:normal;font-weight:normal" x="544.5" y="397.5">
    <tspan x="544.5" y="397.5"></tspan>
  </text>
  <text font-size="22.5778" style="fill: #000000;text-anchor:middle;font-family:sans-serif;font-style:normal;font-weight:normal" x="538" y="293.65">
    <tspan x="538" y="293.65">Anwendungskomponentenrahmen</tspan>
  </text>
</svg>
