<?xml version="1.0" encoding="UTF-8" standalone="no"?>
<!DOCTYPE svg PUBLIC "-//W3C//DTD SVG 1.0//EN" "http://www.w3.org/TR/2001/PR-SVG-20010719/DTD/svg10.dtd">
<svg width="34cm" height="43cm" viewBox="-160 -241 669 855" xmlns="http://www.w3.org/2000/svg" xmlns:xlink="http://www.w3.org/1999/xlink">
  <g>
    <rect style="fill: #ffffff" x="-10.998" y="523.25" width="460" height="86"/>
    <rect style="fill: none; fill-opacity:0; stroke-width: 2; stroke: #000000" x="-10.998" y="523.25" width="460" height="86"/>
  </g>
  <g>
    <rect style="fill: #ffffff" x="-158.996" y="-219.75" width="666.305" height="703"/>
    <rect style="fill: none; fill-opacity:0; stroke-width: 2; stroke: #000000" x="-158.996" y="-219.75" width="666.305" height="703"/>
    <rect style="fill: #ffffff" x="-158.996" y="-239.75" width="104.1" height="20"/>
    <rect style="fill: none; fill-opacity:0; stroke-width: 2; stroke: #000000" x="-158.996" y="-239.75" width="104.1" height="20"/>
    <text font-size="12.7998" style="fill: #000000;text-anchor:start;font-family:monospace;font-style:normal;font-weight:normal" x="-156.996" y="-224.75">Bankanwendung</text>
  </g>
  <g>
    <rect style="fill: #ffffff" x="-36" y="-203" width="214.85" height="44"/>
    <rect style="fill: none; fill-opacity:0; stroke-width: 2; stroke: #000000" x="-36" y="-203" width="214.85" height="44"/>
    <text font-size="12.8" style="fill: #000000;text-anchor:middle;font-family:monospace;font-style:normal;font-weight:normal" x="71.425" y="-187">&lt;&lt;module&gt;&gt;</text>
    <text font-size="16" style="fill: #000000;text-anchor:middle;font-family:sans-serif;font-style:normal;font-weight:700" x="71.425" y="-168">bankapp.welcomeview</text>
    <rect style="fill: #ffffff" x="-36" y="-159" width="214.85" height="8"/>
    <rect style="fill: none; fill-opacity:0; stroke-width: 2; stroke: #000000" x="-36" y="-159" width="214.85" height="8"/>
    <rect style="fill: #ffffff" x="-36" y="-151" width="214.85" height="8"/>
    <rect style="fill: none; fill-opacity:0; stroke-width: 2; stroke: #000000" x="-36" y="-151" width="214.85" height="8"/>
  </g>
  <g>
    <rect style="fill: #ffffff" x="251" y="111" width="168.05" height="72"/>
    <rect style="fill: none; fill-opacity:0; stroke-width: 2; stroke: #000000" x="251" y="111" width="168.05" height="72"/>
    <text font-size="12.8" style="fill: #000000;text-anchor:middle;font-family:monospace;font-style:normal;font-weight:normal" x="335.025" y="127">&lt;&lt;module&gt;&gt;</text>
    <text font-size="16" style="fill: #000000;text-anchor:middle;font-family:sans-serif;font-style:normal;font-weight:700" x="335.025" y="146">bankapp.subview</text>
    <text font-size="11.2" style="fill: #000000;text-anchor:middle;font-family:sans-serif;font-style:normal;font-weight:normal" x="335.025" y="161.5">with factory as</text>
    <text font-size="11.2" style="fill: #000000;text-anchor:middle;font-family:sans-serif;font-style:normal;font-weight:normal" x="335.025" y="175.5">service</text>
    <rect style="fill: #ffffff" x="251" y="183" width="168.05" height="8"/>
    <rect style="fill: none; fill-opacity:0; stroke-width: 2; stroke: #000000" x="251" y="183" width="168.05" height="8"/>
    <rect style="fill: #ffffff" x="251" y="191" width="168.05" height="8"/>
    <rect style="fill: none; fill-opacity:0; stroke-width: 2; stroke: #000000" x="251" y="191" width="168.05" height="8"/>
  </g>
  <g>
    <rect style="fill: #ffffff" x="261" y="-173" width="154.05" height="72"/>
    <rect style="fill: none; fill-opacity:0; stroke-width: 2; stroke: #000000" x="261" y="-173" width="154.05" height="72"/>
    <text font-size="12.8" style="fill: #000000;text-anchor:middle;font-family:monospace;font-style:normal;font-weight:normal" x="338.025" y="-157">&lt;&lt;module&gt;&gt;</text>
    <text font-size="16" style="fill: #000000;text-anchor:middle;font-family:sans-serif;font-style:normal;font-weight:700" x="338.025" y="-138">bankapp.search</text>
    <text font-size="11.2" style="fill: #000000;text-anchor:middle;font-family:sans-serif;font-style:normal;font-weight:normal" x="338.025" y="-122.5">with factory as</text>
    <text font-size="11.2" style="fill: #000000;text-anchor:middle;font-family:sans-serif;font-style:normal;font-weight:normal" x="338.025" y="-108.5">service</text>
    <rect style="fill: #ffffff" x="261" y="-101" width="154.05" height="8"/>
    <rect style="fill: none; fill-opacity:0; stroke-width: 2; stroke: #000000" x="261" y="-101" width="154.05" height="8"/>
    <rect style="fill: #ffffff" x="261" y="-93" width="154.05" height="8"/>
    <rect style="fill: none; fill-opacity:0; stroke-width: 2; stroke: #000000" x="261" y="-93" width="154.05" height="8"/>
  </g>
  <g>
    <rect style="fill: #ffffff" x="-38" y="-111.276" width="180.05" height="72"/>
    <rect style="fill: none; fill-opacity:0; stroke-width: 2; stroke: #000000" x="-38" y="-111.276" width="180.05" height="72"/>
    <text font-size="12.8" style="fill: #000000;text-anchor:middle;font-family:monospace;font-style:normal;font-weight:normal" x="52.025" y="-95.2759">&lt;&lt;module&gt;&gt;</text>
    <text font-size="16" style="fill: #000000;text-anchor:middle;font-family:sans-serif;font-style:normal;font-weight:700" x="52.025" y="-76.2759">bankapp.mainview</text>
    <text font-size="11.2" style="fill: #000000;text-anchor:middle;font-family:sans-serif;font-style:normal;font-weight:normal" x="52.025" y="-60.7759">with factory as</text>
    <text font-size="11.2" style="fill: #000000;text-anchor:middle;font-family:sans-serif;font-style:normal;font-weight:normal" x="52.025" y="-46.7759">service</text>
    <rect style="fill: #ffffff" x="-38" y="-39.2759" width="180.05" height="8"/>
    <rect style="fill: none; fill-opacity:0; stroke-width: 2; stroke: #000000" x="-38" y="-39.2759" width="180.05" height="8"/>
    <rect style="fill: #ffffff" x="-38" y="-31.2759" width="180.05" height="8"/>
    <rect style="fill: none; fill-opacity:0; stroke-width: 2; stroke: #000000" x="-38" y="-31.2759" width="180.05" height="8"/>
  </g>
  <g>
    <rect style="fill: #ffffff" x="-51" y="201.457" width="167.05" height="44"/>
    <rect style="fill: none; fill-opacity:0; stroke-width: 2; stroke: #000000" x="-51" y="201.457" width="167.05" height="44"/>
    <text font-size="12.8" style="fill: #000000;text-anchor:middle;font-family:monospace;font-style:normal;font-weight:normal" x="32.525" y="217.457">&lt;&lt;module&gt;&gt;</text>
    <text font-size="16" style="fill: #000000;text-anchor:middle;font-family:sans-serif;font-style:normal;font-weight:700" x="32.525" y="236.457">bankapp.transfer</text>
    <rect style="fill: #ffffff" x="-51" y="245.457" width="167.05" height="8"/>
    <rect style="fill: none; fill-opacity:0; stroke-width: 2; stroke: #000000" x="-51" y="245.457" width="167.05" height="8"/>
    <rect style="fill: #ffffff" x="-51" y="253.457" width="167.05" height="8"/>
    <rect style="fill: none; fill-opacity:0; stroke-width: 2; stroke: #000000" x="-51" y="253.457" width="167.05" height="8"/>
  </g>
  <g>
    <rect style="fill: #ffffff" x="251" y="279" width="168.9" height="72"/>
    <rect style="fill: none; fill-opacity:0; stroke-width: 2; stroke: #000000" x="251" y="279" width="168.9" height="72"/>
    <text font-size="12.8" style="fill: #000000;text-anchor:middle;font-family:monospace;font-style:normal;font-weight:normal" x="335.45" y="295">&lt;&lt;module&gt;&gt;</text>
    <text font-size="16" style="fill: #000000;text-anchor:middle;font-family:sans-serif;font-style:normal;font-weight:700" x="335.45" y="314">bankapp.function</text>
    <text font-size="11.2" style="fill: #000000;text-anchor:middle;font-family:sans-serif;font-style:normal;font-weight:normal" x="335.45" y="329.5">with factory as</text>
    <text font-size="11.2" style="fill: #000000;text-anchor:middle;font-family:sans-serif;font-style:normal;font-weight:normal" x="335.45" y="343.5">service</text>
    <rect style="fill: #ffffff" x="251" y="351" width="168.9" height="8"/>
    <rect style="fill: none; fill-opacity:0; stroke-width: 2; stroke: #000000" x="251" y="351" width="168.9" height="8"/>
    <rect style="fill: #ffffff" x="251" y="359" width="168.9" height="8"/>
    <rect style="fill: none; fill-opacity:0; stroke-width: 2; stroke: #000000" x="251" y="359" width="168.9" height="8"/>
  </g>
  <g>
    <rect style="fill: #ffffff" x="-50" y="369" width="220.15" height="44"/>
    <rect style="fill: none; fill-opacity:0; stroke-width: 2; stroke: #000000" x="-50" y="369" width="220.15" height="44"/>
    <text font-size="12.8" style="fill: #000000;text-anchor:middle;font-family:monospace;font-style:normal;font-weight:normal" x="60.075" y="385">&lt;&lt;module&gt;&gt;</text>
    <text font-size="16" style="fill: #000000;text-anchor:middle;font-family:sans-serif;font-style:normal;font-weight:700" x="60.075" y="404">bankapp.customerview</text>
    <rect style="fill: #ffffff" x="-50" y="413" width="220.15" height="8"/>
    <rect style="fill: none; fill-opacity:0; stroke-width: 2; stroke: #000000" x="-50" y="413" width="220.15" height="8"/>
    <rect style="fill: #ffffff" x="-50" y="421" width="220.15" height="8"/>
    <rect style="fill: none; fill-opacity:0; stroke-width: 2; stroke: #000000" x="-50" y="421" width="220.15" height="8"/>
  </g>
  <g>
    <rect style="fill: #ffffff" x="237" y="-1" width="203.45" height="72"/>
    <rect style="fill: none; fill-opacity:0; stroke-width: 2; stroke: #000000" x="237" y="-1" width="203.45" height="72"/>
    <text font-size="12.8" style="fill: #000000;text-anchor:middle;font-family:monospace;font-style:normal;font-weight:normal" x="338.725" y="15">&lt;&lt;module&gt;&gt;</text>
    <text font-size="16" style="fill: #000000;text-anchor:middle;font-family:sans-serif;font-style:normal;font-weight:700" x="338.725" y="34">bankapp.breadcrumb</text>
    <text font-size="11.2" style="fill: #000000;text-anchor:middle;font-family:sans-serif;font-style:normal;font-weight:normal" x="338.725" y="49.5">with factory as</text>
    <text font-size="11.2" style="fill: #000000;text-anchor:middle;font-family:sans-serif;font-style:normal;font-weight:normal" x="338.725" y="63.5">service</text>
    <rect style="fill: #ffffff" x="237" y="71" width="203.45" height="8"/>
    <rect style="fill: none; fill-opacity:0; stroke-width: 2; stroke: #000000" x="237" y="71" width="203.45" height="8"/>
    <rect style="fill: #ffffff" x="237" y="79" width="203.45" height="8"/>
    <rect style="fill: none; fill-opacity:0; stroke-width: 2; stroke: #000000" x="237" y="79" width="203.45" height="8"/>
  </g>
  <g>
    <rect style="fill: #ffffff" x="-48" y="125" width="180" height="44"/>
    <rect style="fill: none; fill-opacity:0; stroke-width: 2; stroke: #000000" x="-48" y="125" width="180" height="44"/>
    <text font-size="12.8" style="fill: #000000;text-anchor:middle;font-family:monospace;font-style:normal;font-weight:normal" x="42" y="141">&lt;&lt;module&gt;&gt;</text>
    <text font-size="16" style="fill: #000000;text-anchor:middle;font-family:sans-serif;font-style:normal;font-weight:700" x="42" y="160">bankapp.bankview</text>
    <rect style="fill: #ffffff" x="-48" y="169" width="180" height="8"/>
    <rect style="fill: none; fill-opacity:0; stroke-width: 2; stroke: #000000" x="-48" y="169" width="180" height="8"/>
    <rect style="fill: #ffffff" x="-48" y="177" width="180" height="8"/>
    <rect style="fill: none; fill-opacity:0; stroke-width: 2; stroke: #000000" x="-48" y="177" width="180" height="8"/>
  </g>
  <g>
    <rect style="fill: #ffffff" x="-48" y="290.362" width="197.45" height="44"/>
    <rect style="fill: none; fill-opacity:0; stroke-width: 2; stroke: #000000" x="-48" y="290.362" width="197.45" height="44"/>
    <text font-size="12.8" style="fill: #000000;text-anchor:middle;font-family:monospace;font-style:normal;font-weight:normal" x="50.725" y="306.362">&lt;&lt;module&gt;&gt;</text>
    <text font-size="16" style="fill: #000000;text-anchor:middle;font-family:sans-serif;font-style:normal;font-weight:700" x="50.725" y="325.362">bankapp.acountview</text>
    <rect style="fill: #ffffff" x="-48" y="334.362" width="197.45" height="8"/>
    <rect style="fill: none; fill-opacity:0; stroke-width: 2; stroke: #000000" x="-48" y="334.362" width="197.45" height="8"/>
    <rect style="fill: #ffffff" x="-48" y="342.362" width="197.45" height="8"/>
    <rect style="fill: none; fill-opacity:0; stroke-width: 2; stroke: #000000" x="-48" y="342.362" width="197.45" height="8"/>
  </g>
  <g>
    <polyline style="fill: none; fill-opacity:0; stroke-width: 2; stroke-dasharray: 8; stroke: #000000" points="218.764,35 199.925,35 199.925,-181 178.85,-181 "/>
    <polygon style="fill: #ffffff" points="218.764,43 234.764,35 218.764,27 "/>
    <polygon style="fill: none; fill-opacity:0; stroke-width: 2; stroke: #000000" points="218.764,43 234.764,35 218.764,27 "/>
  </g>
  <g>
    <polyline style="fill: none; fill-opacity:0; stroke-width: 2; stroke-dasharray: 8; stroke: #000000" points="218.764,35 200.004,35 200.004,-75.2759 142.05,-75.2759 "/>
    <polygon style="fill: #ffffff" points="218.764,43 234.764,35 218.764,27 "/>
    <polygon style="fill: none; fill-opacity:0; stroke-width: 2; stroke: #000000" points="218.764,43 234.764,35 218.764,27 "/>
  </g>
  <g>
    <polyline style="fill: none; fill-opacity:0; stroke-width: 2; stroke-dasharray: 8; stroke: #000000" points="308.766,553.25 310.002,553.25 91.002,553.25 90.002,553.25 "/>
    <polygon style="fill: #ffffff" points="308.766,561.25 324.766,553.25 308.766,545.25 "/>
    <polygon style="fill: none; fill-opacity:0; stroke-width: 2; stroke: #000000" points="308.766,561.25 324.766,553.25 308.766,545.25 "/>
  </g>
  <g>
    <rect style="fill: #ffffff" x="10.002" y="535.25" width="80" height="36" rx="20" ry="20"/>
    <rect style="fill: none; fill-opacity:0; stroke-width: 2; stroke: #000000" x="10.002" y="535.25" width="80" height="36" rx="20" ry="20"/>
    <text font-size="12.8" style="fill: #ff0000;text-anchor:middle;font-family:sans-serif;font-style:normal;font-weight:normal" x="50.002" y="557.15">
      <tspan x="50.002" y="557.15">User</tspan>
    </text>
  </g>
  <g>
    <rect style="fill: #ffffff" x="327.002" y="535.25" width="80" height="36" rx="20" ry="20"/>
    <rect style="fill: none; fill-opacity:0; stroke-width: 2; stroke: #000000" x="327.002" y="535.25" width="80" height="36" rx="20" ry="20"/>
    <text font-size="12.8" style="fill: #0000ff;text-anchor:middle;font-family:sans-serif;font-style:normal;font-weight:normal" x="367.002" y="557.15">
      <tspan x="367.002" y="557.15">Service</tspan>
    </text>
  </g>
  <g>
    <polygon style="fill: #ffffff" points="103.002,579.25 332.302,579.25 344.302,591.25 344.302,613.25 103.002,613.25 "/>
    <polygon style="fill: none; fill-opacity:0; stroke-width: 2; stroke: #000000" points="103.002,579.25 332.302,579.25 344.302,591.25 344.302,613.25 103.002,613.25 "/>
    <polyline style="fill: none; fill-opacity:0; stroke-width: 1; stroke: #000000" points="332.302,579.25 332.302,591.25 344.302,591.25 "/>
    <text font-size="12.8" style="fill: #000000;text-anchor:start;font-family:monospace;font-style:normal;font-weight:normal" x="110.002" y="604.15">
      <tspan x="110.002" y="604.15">User is Injected with Service</tspan>
    </text>
  </g>
  <g>
    <polyline style="fill: none; fill-opacity:0; stroke-width: 2; stroke-dasharray: 8; stroke: #000000" points="338.025,-66.7639 338.025,-35 338.725,-35 338.725,-1 "/>
    <polygon style="fill: #ffffff" points="346.025,-66.7639 338.025,-82.7639 330.025,-66.7639 "/>
    <polygon style="fill: none; fill-opacity:0; stroke-width: 2; stroke: #000000" points="346.025,-66.7639 338.025,-82.7639 330.025,-66.7639 "/>
  </g>
  <g>
    <rect style="fill: #ffffff" x="-136.994" y="19.25" width="88" height="44"/>
    <rect style="fill: none; fill-opacity:0; stroke-width: 2; stroke: #000000" x="-136.994" y="19.25" width="88" height="44"/>
    <text font-size="12.8" style="fill: #000000;text-anchor:middle;font-family:monospace;font-style:normal;font-weight:normal" x="-92.994" y="35.25">&lt;&lt;module&gt;&gt;</text>
    <text font-size="16" style="fill: #000000;text-anchor:middle;font-family:sans-serif;font-style:normal;font-weight:700" x="-92.994" y="54.25">bankapp</text>
    <rect style="fill: #ffffff" x="-136.994" y="63.25" width="88" height="8"/>
    <rect style="fill: none; fill-opacity:0; stroke-width: 2; stroke: #000000" x="-136.994" y="63.25" width="88" height="8"/>
    <rect style="fill: #ffffff" x="-136.994" y="71.25" width="88" height="8"/>
    <rect style="fill: none; fill-opacity:0; stroke-width: 2; stroke: #000000" x="-136.994" y="71.25" width="88" height="8"/>
  </g>
  <g>
    <polyline style="fill: none; fill-opacity:0; stroke-width: 2; stroke-dasharray: 8; stroke: #000000" points="-54.2361,-181 -92.994,-181 -92.994,19.25 "/>
    <polygon style="fill: #ffffff" points="-54.2361,-173 -38.2361,-181 -54.2361,-189 "/>
    <polygon style="fill: none; fill-opacity:0; stroke-width: 2; stroke: #000000" points="-54.2361,-173 -38.2361,-181 -54.2361,-189 "/>
  </g>
  <g>
    <polyline style="fill: none; fill-opacity:0; stroke-width: 2; stroke-dasharray: 8; stroke: #000000" points="-66.2361,147 -92.996,147 -92.996,79.25 -92.994,79.25 "/>
    <polygon style="fill: #ffffff" points="-66.2361,155 -50.2361,147 -66.2361,139 "/>
    <polygon style="fill: none; fill-opacity:0; stroke-width: 2; stroke: #000000" points="-66.2361,155 -50.2361,147 -66.2361,139 "/>
  </g>
  <g>
    <rect style="fill: #ffffff" x="6.006" y="19.25" width="138.05" height="44"/>
    <rect style="fill: none; fill-opacity:0; stroke-width: 2; stroke: #000000" x="6.006" y="19.25" width="138.05" height="44"/>
    <text font-size="12.8" style="fill: #000000;text-anchor:middle;font-family:monospace;font-style:normal;font-weight:normal" x="75.031" y="35.25">&lt;&lt;module&gt;&gt;</text>
    <text font-size="16" style="fill: #000000;text-anchor:middle;font-family:sans-serif;font-style:normal;font-weight:700" x="75.031" y="54.25">bankapp.style</text>
    <rect style="fill: #ffffff" x="6.006" y="63.25" width="138.05" height="8"/>
    <rect style="fill: none; fill-opacity:0; stroke-width: 2; stroke: #000000" x="6.006" y="63.25" width="138.05" height="8"/>
    <rect style="fill: #ffffff" x="6.006" y="71.25" width="138.05" height="8"/>
    <rect style="fill: none; fill-opacity:0; stroke-width: 2; stroke: #000000" x="6.006" y="71.25" width="138.05" height="8"/>
  </g>
  <g>
    <polyline style="fill: none; fill-opacity:0; stroke-width: 2; stroke-dasharray: 8; stroke: #000000" points="-12.2301,41.25 -10.994,41.25 -47.994,41.25 -48.994,41.25 "/>
    <polygon style="fill: #ffffff" points="-12.2301,49.25 3.76993,41.25 -12.2301,33.25 "/>
    <polygon style="fill: none; fill-opacity:0; stroke-width: 2; stroke: #000000" points="-12.2301,49.25 3.76993,41.25 -12.2301,33.25 "/>
  </g>
  <g>
    <polyline style="fill: none; fill-opacity:0; stroke-width: 2; stroke-dasharray: 8; stroke: #000000" points="-56.2361,-75.2759 -92.994,-75.2759 -92.994,19.25 "/>
    <polygon style="fill: #ffffff" points="-56.2361,-67.2759 -40.2361,-75.2759 -56.2361,-83.2759 "/>
    <polygon style="fill: none; fill-opacity:0; stroke-width: 2; stroke: #000000" points="-56.2361,-67.2759 -40.2361,-75.2759 -56.2361,-83.2759 "/>
  </g>
  <g>
    <polyline style="fill: none; fill-opacity:0; stroke-width: 2; stroke-dasharray: 8; stroke: #000000" points="-66.2361,312.362 -92.996,312.362 -92.996,79.25 -92.994,79.25 "/>
    <polygon style="fill: #ffffff" points="-66.2361,320.362 -50.2361,312.362 -66.2361,304.362 "/>
    <polygon style="fill: none; fill-opacity:0; stroke-width: 2; stroke: #000000" points="-66.2361,320.362 -50.2361,312.362 -66.2361,304.362 "/>
  </g>
  <g>
    <polyline style="fill: none; fill-opacity:0; stroke-width: 2; stroke-dasharray: 8; stroke: #000000" points="-69.2361,223.457 -92.994,223.457 -92.994,79.25 "/>
    <polygon style="fill: #ffffff" points="-69.2361,231.457 -53.2361,223.457 -69.2361,215.457 "/>
    <polygon style="fill: none; fill-opacity:0; stroke-width: 2; stroke: #000000" points="-69.2361,231.457 -53.2361,223.457 -69.2361,215.457 "/>
  </g>
  <g>
    <polyline style="fill: none; fill-opacity:0; stroke-width: 2; stroke-dasharray: 8; stroke: #000000" points="-68.2361,391 -92.994,391 -92.994,79.25 "/>
    <polygon style="fill: #ffffff" points="-68.2361,399 -52.2361,391 -68.2361,383 "/>
    <polygon style="fill: none; fill-opacity:0; stroke-width: 2; stroke: #000000" points="-68.2361,399 -52.2361,391 -68.2361,383 "/>
  </g>
  <g>
    <polyline style="fill: none; fill-opacity:0; stroke-width: 2; stroke-dasharray: 8; stroke: #000000" points="237,105.236 237,114.125 251,114.125 251,111 "/>
    <polygon style="fill: #ffffff" points="245,105.236 237,89.2361 229,105.236 "/>
    <polygon style="fill: none; fill-opacity:0; stroke-width: 2; stroke: #000000" points="245,105.236 237,89.2361 229,105.236 "/>
  </g>
  <g>
    <polyline style="fill: none; fill-opacity:0; stroke-width: 2; stroke-dasharray: 8; stroke: #000000" points="232.768,147.25 183.502,147.25 183.502,147 132,147 "/>
    <polygon style="fill: #ffffff" points="232.768,155.25 248.768,147.25 232.768,139.25 "/>
    <polygon style="fill: none; fill-opacity:0; stroke-width: 2; stroke: #000000" points="232.768,155.25 248.768,147.25 232.768,139.25 "/>
  </g>
  <g>
    <polyline style="fill: none; fill-opacity:0; stroke-width: 2; stroke-dasharray: 8; stroke: #000000" points="232.768,147.25 203.004,147.25 203.004,223.457 116.05,223.457 "/>
    <polygon style="fill: #ffffff" points="232.768,155.25 248.768,147.25 232.768,139.25 "/>
    <polygon style="fill: none; fill-opacity:0; stroke-width: 2; stroke: #000000" points="232.768,155.25 248.768,147.25 232.768,139.25 "/>
  </g>
  <g>
    <polyline style="fill: none; fill-opacity:0; stroke-width: 2; stroke-dasharray: 8; stroke: #000000" points="232.768,147.25 203.004,147.25 203.004,312.362 149.45,312.362 "/>
    <polygon style="fill: #ffffff" points="232.768,155.25 248.768,147.25 232.768,139.25 "/>
    <polygon style="fill: none; fill-opacity:0; stroke-width: 2; stroke: #000000" points="232.768,155.25 248.768,147.25 232.768,139.25 "/>
  </g>
  <g>
    <polyline style="fill: none; fill-opacity:0; stroke-width: 2; stroke-dasharray: 8; stroke: #000000" points="232.764,147 202.575,147 202.575,391 170.15,391 "/>
    <polygon style="fill: #ffffff" points="232.764,155 248.764,147 232.764,139 "/>
    <polygon style="fill: none; fill-opacity:0; stroke-width: 2; stroke: #000000" points="232.764,155 248.764,147 232.764,139 "/>
  </g>
  <g>
    <polyline style="fill: none; fill-opacity:0; stroke-width: 2; stroke-dasharray: 8; stroke: #000000" points="335.45,260.764 335.45,231 335.025,231 335.025,199 "/>
    <polygon style="fill: #ffffff" points="327.45,260.764 335.45,276.764 343.45,260.764 "/>
    <polygon style="fill: none; fill-opacity:0; stroke-width: 2; stroke: #000000" points="327.45,260.764 335.45,276.764 343.45,260.764 "/>
  </g>
  <g>
    <polyline style="fill: none; fill-opacity:0; stroke-width: 2; stroke-dasharray: 8; stroke: #000000" points="437.286,147 461.45,147 461.45,35 440.45,35 "/>
    <polygon style="fill: #ffffff" points="437.286,139 421.286,147 437.286,155 "/>
    <polygon style="fill: none; fill-opacity:0; stroke-width: 2; stroke: #000000" points="437.286,139 421.286,147 437.286,155 "/>
  </g>
</svg>
