<?xml version="1.0" encoding="UTF-8" standalone="no"?>
<!DOCTYPE svg PUBLIC "-//W3C//DTD SVG 1.0//EN" "http://www.w3.org/TR/2001/PR-SVG-20010719/DTD/svg10.dtd">
<svg width="31cm" height="23cm" viewBox="200 104 610 460" xmlns="http://www.w3.org/2000/svg" xmlns:xlink="http://www.w3.org/1999/xlink">
  <g>
    <rect style="fill: #ffffff" x="388" y="105" width="210.2" height="36" rx="20" ry="20"/>
    <rect style="fill: none; fill-opacity:0; stroke-width: 2; stroke: #000000" x="388" y="105" width="210.2" height="36" rx="20" ry="20"/>
    <text font-size="12.8" style="fill: #000000;text-anchor:middle;font-family:sans-serif;font-style:normal;font-weight:normal" x="493.1" y="126.9">
      <tspan x="493.1" y="126.9">Komponentenutzungsanfrage</tspan>
    </text>
  </g>
  <g>
    <polygon style="fill: #ffffff" points="414.5,175.4 559.1,175.4 571.1,187.4 571.1,209.4 414.5,209.4 "/>
    <polygon style="fill: none; fill-opacity:0; stroke-width: 2; stroke: #000000" points="414.5,175.4 559.1,175.4 571.1,187.4 571.1,209.4 414.5,209.4 "/>
    <polyline style="fill: none; fill-opacity:0; stroke-width: 1; stroke: #000000" points="559.1,175.4 559.1,187.4 571.1,187.4 "/>
    <text font-size="12.8" style="fill: #000000;text-anchor:start;font-family:monospace;font-style:normal;font-weight:normal" x="421.5" y="200.3">
      <tspan x="421.5" y="200.3">EinzelansichtsHTML</tspan>
    </text>
  </g>
  <g>
    <line style="fill: none; fill-opacity:0; stroke-width: 2; stroke: #000000" x1="493.1" y1="141" x2="492.896" y2="164.4"/>
    <polygon style="fill: #000000" points="487.896,164.357 492.809,174.4 497.896,164.444 "/>
    <polygon style="fill: none; fill-opacity:0; stroke-width: 2; stroke: #000000" points="487.896,164.357 492.809,174.4 497.896,164.444 "/>
  </g>
  <g>
    <rect style="fill: #ffffff" x="405.5" y="251.4" width="172.55" height="36" rx="10" ry="10"/>
    <rect style="fill: none; fill-opacity:0; stroke-width: 2; stroke: #000000" x="405.5" y="251.4" width="172.55" height="36" rx="10" ry="10"/>
    <text font-size="12.8" style="fill: #000000;text-anchor:middle;font-family:sans-serif;font-style:normal;font-weight:normal" x="491.775" y="273.3">
      <tspan x="491.775" y="273.3">Einzelansichtskontroller</tspan>
    </text>
  </g>
  <g>
    <line style="fill: none; fill-opacity:0; stroke-width: 2; stroke: #000000" x1="492.487" y1="210.391" x2="491.965" y2="240.402"/>
    <polygon style="fill: #000000" points="486.966,240.315 491.791,250.4 496.965,240.489 "/>
    <polygon style="fill: none; fill-opacity:0; stroke-width: 2; stroke: #000000" points="486.966,240.315 491.791,250.4 496.965,240.489 "/>
  </g>
  <g>
    <polygon style="fill: #ffffff" points="428,427.8 541.8,427.8 553.8,439.8 553.8,461.8 428,461.8 "/>
    <polygon style="fill: none; fill-opacity:0; stroke-width: 2; stroke: #000000" points="428,427.8 541.8,427.8 553.8,439.8 553.8,461.8 428,461.8 "/>
    <polyline style="fill: none; fill-opacity:0; stroke-width: 1; stroke: #000000" points="541.8,427.8 541.8,439.8 553.8,439.8 "/>
    <text font-size="12.8" style="fill: #000000;text-anchor:start;font-family:monospace;font-style:normal;font-weight:normal" x="435" y="452.7">
      <tspan x="435" y="452.7">übersichtsHTML</tspan>
    </text>
  </g>
  <g>
    <rect style="fill: #ffffff" x="202" y="386.8" width="202.3" height="36" rx="10" ry="10"/>
    <rect style="fill: none; fill-opacity:0; stroke-width: 2; stroke: #000000" x="202" y="386.8" width="202.3" height="36" rx="10" ry="10"/>
    <text font-size="12.8" style="fill: #000000;text-anchor:middle;font-family:sans-serif;font-style:normal;font-weight:normal" x="303.15" y="408.7">
      <tspan x="303.15" y="408.7">Übersichtsansichtskontroller</tspan>
    </text>
  </g>
  <g>
    <polyline style="fill: none; fill-opacity:0; stroke-width: 2; stroke-dasharray: 8; stroke: #000000" points="303.15,368.564 303.15,340.3 303.55,340.3 303.55,309.8 "/>
    <polygon style="fill: #ffffff" points="295.15,368.564 303.15,384.564 311.15,368.564 "/>
    <polygon style="fill: none; fill-opacity:0; stroke-width: 2; stroke: #000000" points="295.15,368.564 303.15,384.564 311.15,368.564 "/>
  </g>
  <g>
    <ellipse style="fill: #ffffff" cx="303.55" cy="277.8" rx="50.55" ry="32"/>
    <ellipse style="fill: none; fill-opacity:0; stroke-width: 2; stroke: #000000" cx="303.55" cy="277.8" rx="50.55" ry="32"/>
    <text font-size="12.8" style="fill: #000000;text-anchor:middle;font-family:sans-serif;font-style:normal;font-weight:normal" x="303.55" y="273.7">
      <tspan x="303.55" y="273.7">Rest</tspan>
      <tspan x="303.55" y="289.7">Abfrage</tspan>
    </text>
  </g>
  <g>
    <polyline style="fill: none; fill-opacity:0; stroke-width: 2; stroke: #000000" points="303.15,422.8 303.15,444.8 417,444.8 "/>
    <polygon style="fill: #000000" points="417,449.8 427,444.8 417,439.8 "/>
    <polygon style="fill: none; fill-opacity:0; stroke-width: 2; stroke: #000000" points="417,449.8 427,444.8 417,439.8 "/>
  </g>
  <g>
    <rect style="fill: #ffffff" x="620.5" y="418.4" width="130.85" height="52" rx="10" ry="10"/>
    <rect style="fill: none; fill-opacity:0; stroke-width: 2; stroke: #000000" x="620.5" y="418.4" width="130.85" height="52" rx="10" ry="10"/>
    <text font-size="12.8" style="fill: #000000;text-anchor:middle;font-family:sans-serif;font-style:normal;font-weight:normal" x="685.925" y="440.3">
      <tspan x="685.925" y="440.3">bankapp.search :</tspan>
      <tspan x="685.925" y="456.3">searchService</tspan>
    </text>
  </g>
  <g>
    <polygon style="fill: #ffffff" points="471,351 491,331 511,351 491,371 "/>
    <polygon style="fill: none; fill-opacity:0; stroke-width: 2; stroke: #000000" points="471,351 491,331 511,351 491,371 "/>
  </g>
  <g>
    <line style="fill: none; fill-opacity:0; stroke-width: 2; stroke: #000000" x1="491.774" y1="287.4" x2="491.195" y2="320.002"/>
    <polygon style="fill: #000000" points="486.196,319.913 491.018,330 496.194,320.09 "/>
    <polygon style="fill: none; fill-opacity:0; stroke-width: 2; stroke: #000000" points="486.196,319.913 491.018,330 496.194,320.09 "/>
  </g>
  <g>
    <polyline style="fill: none; fill-opacity:0; stroke-width: 2; stroke: #000000" points="511,351 685.925,351 685.925,407.4 "/>
    <polygon style="fill: #000000" points="680.925,407.4 685.925,417.4 690.925,407.4 "/>
    <polygon style="fill: none; fill-opacity:0; stroke-width: 2; stroke: #000000" points="680.925,407.4 685.925,417.4 690.925,407.4 "/>
  </g>
  <g>
    <line style="fill: none; fill-opacity:0; stroke-width: 2; stroke: #000000" x1="490" y1="367" x2="490.737" y2="416.801"/>
    <polygon style="fill: #000000" points="485.738,416.875 490.885,426.8 495.737,416.727 "/>
    <polygon style="fill: none; fill-opacity:0; stroke-width: 2; stroke: #000000" points="485.738,416.875 490.885,426.8 495.737,416.727 "/>
  </g>
  <g>
    <polyline style="fill: none; fill-opacity:0; stroke-width: 2; stroke: #000000" points="428,427.8 428,404.8 415.3,404.8 "/>
    <polygon style="fill: #000000" points="415.3,399.8 405.3,404.8 415.3,409.8 "/>
    <polygon style="fill: none; fill-opacity:0; stroke-width: 2; stroke: #000000" points="415.3,399.8 405.3,404.8 415.3,409.8 "/>
  </g>
  <g>
    <line style="fill: none; fill-opacity:0; stroke-width: 2; stroke: #000000" x1="620.5" y1="444.4" x2="564.8" y2="444.734"/>
    <polygon style="fill: #000000" points="564.77,439.734 554.8,444.794 564.83,449.734 "/>
    <polygon style="fill: none; fill-opacity:0; stroke-width: 2; stroke: #000000" points="564.77,439.734 554.8,444.794 564.83,449.734 "/>
  </g>
  <g>
    <polyline style="fill: none; fill-opacity:0; stroke-width: 2; stroke: #000000" points="490.9,461.8 490.9,562 809,562 809,192.4 582.1,192.4 "/>
    <polygon style="fill: #000000" points="582.1,187.4 572.1,192.4 582.1,197.4 "/>
    <polygon style="fill: none; fill-opacity:0; stroke-width: 2; stroke: #000000" points="582.1,187.4 572.1,192.4 582.1,197.4 "/>
  </g>
</svg>
