<?xml version="1.0" encoding="UTF-8" standalone="no"?>
<!DOCTYPE svg PUBLIC "-//W3C//DTD SVG 1.0//EN" "http://www.w3.org/TR/2001/PR-SVG-20010719/DTD/svg10.dtd">
<svg width="15cm" height="13cm" viewBox="154 147 282 247" xmlns="http://www.w3.org/2000/svg" xmlns:xlink="http://www.w3.org/1999/xlink">
  <g>
    <rect style="fill: #90ee90" x="253" y="148" width="80" height="36" rx="10" ry="10"/>
    <rect style="fill: none; fill-opacity:0; stroke-width: 2; stroke: #000000" x="253" y="148" width="80" height="36" rx="10" ry="10"/>
    <text font-size="12.7998" style="fill: #000000;text-anchor:middle;font-family:sans-serif;font-style:normal;font-weight:normal" x="293" y="169.9">
      <tspan x="293" y="169.9">View</tspan>
    </text>
  </g>
  <g>
    <rect style="fill: #ffc0cb" x="155" y="356" width="80.6" height="36" rx="10" ry="10"/>
    <rect style="fill: none; fill-opacity:0; stroke-width: 2; stroke: #000000" x="155" y="356" width="80.6" height="36" rx="10" ry="10"/>
    <text font-size="12.7998" style="fill: #000000;text-anchor:middle;font-family:sans-serif;font-style:normal;font-weight:normal" x="195.3" y="377.9">
      <tspan x="195.3" y="377.9">Template</tspan>
    </text>
  </g>
  <g>
    <rect style="fill: #add8e6" x="355" y="353" width="80" height="36" rx="10" ry="10"/>
    <rect style="fill: none; fill-opacity:0; stroke-width: 2; stroke: #000000" x="355" y="353" width="80" height="36" rx="10" ry="10"/>
    <text font-size="12.7998" style="fill: #000000;text-anchor:middle;font-family:sans-serif;font-style:normal;font-weight:normal" x="395" y="374.9">
      <tspan x="395" y="374.9">Model</tspan>
    </text>
  </g>
  <g>
    <ellipse style="fill: #bfbfbf" cx="290" cy="276" rx="54" ry="50"/>
    <ellipse style="fill: none; fill-opacity:0; stroke-width: 2; stroke: #000000" cx="290" cy="276" rx="54" ry="50"/>
  </g>
  <text font-size="12.7998" style="fill: #000000;text-anchor:middle;font-family:sans-serif;font-style:normal;font-weight:normal" x="290" y="264.45">
    <tspan x="290" y="264.45">einmalige</tspan>
    <tspan x="290" y="280.45">Zusammen-</tspan>
    <tspan x="290" y="296.45">führung</tspan>
  </text>
  <g>
    <line style="fill: none; fill-opacity:0; stroke-width: 2; stroke: #000000" x1="195.3" y1="356" x2="243.184" y2="318.174"/>
    <polygon style="fill: #000000" points="246.284,322.097 251.032,311.975 240.085,314.25 "/>
    <polygon style="fill: none; fill-opacity:0; stroke-width: 2; stroke: #000000" points="246.284,322.097 251.032,311.975 240.085,314.25 "/>
  </g>
  <g>
    <line style="fill: none; fill-opacity:0; stroke-width: 2; stroke: #000000" x1="395" y1="353" x2="342.001" y2="314.134"/>
    <polygon style="fill: #000000" points="344.958,310.102 333.937,308.22 339.044,318.166 "/>
    <polygon style="fill: none; fill-opacity:0; stroke-width: 2; stroke: #000000" points="344.958,310.102 333.937,308.22 339.044,318.166 "/>
  </g>
  <g>
    <line style="fill: none; fill-opacity:0; stroke-width: 2; stroke: #000000" x1="292" y1="223" x2="292.718" y2="194.996"/>
    <polygon style="fill: #000000" points="297.716,195.125 292.974,185 287.72,194.868 "/>
    <polygon style="fill: none; fill-opacity:0; stroke-width: 2; stroke: #000000" points="297.716,195.125 292.974,185 287.72,194.868 "/>
  </g>
</svg>
