<?xml version="1.0" encoding="UTF-8" standalone="no"?>
<!DOCTYPE svg PUBLIC "-//W3C//DTD SVG 1.0//EN" "http://www.w3.org/TR/2001/PR-SVG-20010719/DTD/svg10.dtd">
<svg width="24cm" height="20cm" viewBox="151 100 480 381" xmlns="http://www.w3.org/2000/svg" xmlns:xlink="http://www.w3.org/1999/xlink">
  <g>
    <rect style="fill: #ffffff" x="191.5" y="101.4" width="103" height="36" rx="20" ry="20"/>
    <rect style="fill: none; fill-opacity:0; stroke-width: 2; stroke: #000000" x="191.5" y="101.4" width="103" height="36" rx="20" ry="20"/>
    <text font-size="12.8" style="fill: #000000;text-anchor:middle;font-family:sans-serif;font-style:normal;font-weight:normal" x="243" y="123.3">
      <tspan x="243" y="123.3">Sucheingabe</tspan>
    </text>
  </g>
  <g>
    <polygon style="fill: #ffffff" points="172.5,160.4 301.7,160.4 313.7,172.4 313.7,194.4 172.5,194.4 "/>
    <polygon style="fill: none; fill-opacity:0; stroke-width: 2; stroke: #000000" points="172.5,160.4 301.7,160.4 313.7,172.4 313.7,194.4 172.5,194.4 "/>
    <polyline style="fill: none; fill-opacity:0; stroke-width: 1; stroke: #000000" points="301.7,160.4 301.7,172.4 313.7,172.4 "/>
    <text font-size="12.8" style="fill: #000000;text-anchor:start;font-family:monospace;font-style:normal;font-weight:normal" x="179.5" y="185.3">
      <tspan x="179.5" y="185.3">mainSidebar.html</tspan>
    </text>
  </g>
  <g>
    <rect style="fill: #ffffff" x="178.5" y="216.4" width="130.85" height="52" rx="10" ry="10"/>
    <rect style="fill: none; fill-opacity:0; stroke-width: 2; stroke: #000000" x="178.5" y="216.4" width="130.85" height="52" rx="10" ry="10"/>
    <text font-size="12.8" style="fill: #000000;text-anchor:middle;font-family:sans-serif;font-style:normal;font-weight:normal" x="243.925" y="238.3">
      <tspan x="243.925" y="238.3">bankapp.search :</tspan>
      <tspan x="243.925" y="254.3">searchCtrl</tspan>
    </text>
  </g>
  <g>
    <line style="fill: none; fill-opacity:0; stroke-width: 2; stroke: #000000" x1="243" y1="137.4" x2="243.052" y2="149.4"/>
    <polygon style="fill: #000000" points="238.052,149.422 243.096,159.4 248.052,149.378 "/>
    <polygon style="fill: none; fill-opacity:0; stroke-width: 2; stroke: #000000" points="238.052,149.422 243.096,159.4 248.052,149.378 "/>
  </g>
  <g>
    <line style="fill: none; fill-opacity:0; stroke-width: 2; stroke: #000000" x1="243.1" y1="194.4" x2="243.513" y2="205.408"/>
    <polygon style="fill: #000000" points="238.517,205.595 243.888,215.401 248.51,205.22 "/>
    <polygon style="fill: none; fill-opacity:0; stroke-width: 2; stroke: #000000" points="238.517,205.595 243.888,215.401 248.51,205.22 "/>
  </g>
  <g>
    <rect style="fill: #ffffff" x="180" y="295" width="130.85" height="52" rx="10" ry="10"/>
    <rect style="fill: none; fill-opacity:0; stroke-width: 2; stroke: #000000" x="180" y="295" width="130.85" height="52" rx="10" ry="10"/>
    <text font-size="12.8" style="fill: #000000;text-anchor:middle;font-family:sans-serif;font-style:normal;font-weight:normal" x="245.425" y="316.9">
      <tspan x="245.425" y="316.9">bankapp.search :</tspan>
      <tspan x="245.425" y="332.9">searchService</tspan>
    </text>
  </g>
  <g>
    <line style="fill: none; fill-opacity:0; stroke-width: 2; stroke: #000000" x1="243.926" y1="268.4" x2="244.807" y2="284.017"/>
    <polygon style="fill: #000000" points="239.815,284.299 245.37,294.002 249.799,283.736 "/>
    <polygon style="fill: none; fill-opacity:0; stroke-width: 2; stroke: #000000" points="239.815,284.299 245.37,294.002 249.799,283.736 "/>
  </g>
  <g>
    <rect style="fill: #ffffff" x="152" y="377" width="181.45" height="36" rx="10" ry="10"/>
    <rect style="fill: none; fill-opacity:0; stroke-width: 2; stroke: #000000" x="152" y="377" width="181.45" height="36" rx="10" ry="10"/>
    <text font-size="12.8" style="fill: #000000;text-anchor:middle;font-family:sans-serif;font-style:normal;font-weight:normal" x="242.725" y="398.9">
      <tspan x="242.725" y="398.9">Übersichtseitencontroller</tspan>
    </text>
  </g>
  <g>
    <polygon style="fill: #ffffff" points="160,443 312.3,443 324.3,455 324.3,477 160,477 "/>
    <polygon style="fill: none; fill-opacity:0; stroke-width: 2; stroke: #000000" points="160,443 312.3,443 324.3,455 324.3,477 160,477 "/>
    <polyline style="fill: none; fill-opacity:0; stroke-width: 1; stroke: #000000" points="312.3,443 312.3,455 324.3,455 "/>
    <text font-size="12.8" style="fill: #000000;text-anchor:start;font-family:monospace;font-style:normal;font-weight:normal" x="167" y="467.9">
      <tspan x="167" y="467.9">HTML Übersichtseite</tspan>
    </text>
  </g>
  <g>
    <polyline style="fill: none; fill-opacity:0; stroke-width: 2; stroke: #000000" points="309.35,242.4 334.7,242.4 334.7,177.4 324.7,177.4 "/>
    <polygon style="fill: #000000" points="324.7,172.4 314.7,177.4 324.7,182.4 "/>
    <polygon style="fill: none; fill-opacity:0; stroke-width: 2; stroke: #000000" points="324.7,172.4 314.7,177.4 324.7,182.4 "/>
  </g>
  <g>
    <line style="fill: none; fill-opacity:0; stroke-width: 2; stroke-dasharray: 4; stroke: #000000" x1="245.426" y1="347" x2="243.711" y2="366.044"/>
    <polygon style="fill: #000000" points="238.732,365.596 242.815,376.004 248.691,366.493 "/>
    <polygon style="fill: none; fill-opacity:0; stroke-width: 2; stroke: #000000" points="238.732,365.596 242.815,376.004 248.691,366.493 "/>
  </g>
  <g>
    <line style="fill: none; fill-opacity:0; stroke-width: 2; stroke: #000000" x1="242.725" y1="413" x2="242.361" y2="432.002"/>
    <polygon style="fill: #000000" points="237.362,431.906 242.169,442 247.36,432.098 "/>
    <polygon style="fill: none; fill-opacity:0; stroke-width: 2; stroke: #000000" points="237.362,431.906 242.169,442 247.36,432.098 "/>
  </g>
  <g>
    <rect style="fill: #ffffff" x="369.5" y="377" width="260" height="103"/>
    <rect style="fill: none; fill-opacity:0; stroke-width: 2; stroke: #000000" x="369.5" y="377" width="260" height="103"/>
  </g>
  <g>
    <line style="fill: none; fill-opacity:0; stroke-width: 2; stroke: #000000" x1="503.9" y1="412" x2="581.501" y2="412.876"/>
    <polygon style="fill: #000000" points="581.444,417.876 591.5,412.989 581.557,407.876 "/>
    <polygon style="fill: none; fill-opacity:0; stroke-width: 2; stroke: #000000" points="581.444,417.876 591.5,412.989 581.557,407.876 "/>
  </g>
  <g>
    <line style="fill: none; fill-opacity:0; stroke-width: 2; stroke-dasharray: 4; stroke: #000000" x1="503.9" y1="447" x2="583" y2="446.665"/>
    <polygon style="fill: #000000" points="583.021,451.665 593,446.622 582.979,441.665 "/>
    <polygon style="fill: none; fill-opacity:0; stroke-width: 2; stroke: #000000" points="583.021,451.665 593,446.622 582.979,441.665 "/>
  </g>
  <text font-size="12.8" style="fill: #000000;text-anchor:start;font-family:sans-serif;font-style:normal;font-weight:normal" x="391.602" y="416">
    <tspan x="391.602" y="416">Datensendung</tspan>
  </text>
  <text font-size="12.8" style="fill: #000000;text-anchor:start;font-family:sans-serif;font-style:normal;font-weight:normal" x="394.602" y="450">
    <tspan x="394.602" y="450">Datenabfrage</tspan>
  </text>
  <g>
    <rect style="fill: #ffffff" x="386.602" y="357" width="109" height="36"/>
    <rect style="fill: none; fill-opacity:0; stroke-width: 2; stroke: #000000" x="386.602" y="357" width="109" height="36"/>
  </g>
  <text font-size="12.8" style="fill: #000000;text-anchor:middle;font-family:sans-serif;font-style:normal;font-weight:normal" x="441.102" y="379.45">
    <tspan x="441.102" y="379.45">Legende</tspan>
  </text>
</svg>
