<?xml version="1.0" encoding="UTF-8" standalone="no"?>
<!DOCTYPE svg PUBLIC "-//W3C//DTD SVG 1.0//EN" "http://www.w3.org/TR/2001/PR-SVG-20010719/DTD/svg10.dtd">
<svg width="36cm" height="34cm" viewBox="161 232 703 678" xmlns="http://www.w3.org/2000/svg" xmlns:xlink="http://www.w3.org/1999/xlink">
  <g>
    <polygon style="fill: #ffffff" points="404.022,296 533.222,296 545.222,308 545.222,330 404.022,330 "/>
    <polygon style="fill: none; fill-opacity:0; stroke-width: 2; stroke: #000000" points="404.022,296 533.222,296 545.222,308 545.222,330 404.022,330 "/>
    <polyline style="fill: none; fill-opacity:0; stroke-width: 1; stroke: #000000" points="533.222,296 533.222,308 545.222,308 "/>
    <text font-size="12.8" style="fill: #000000;text-anchor:start;font-family:monospace;font-style:normal;font-weight:normal" x="411.022" y="320.9">
      <tspan x="411.022" y="320.9">mainSidebar.html</tspan>
    </text>
  </g>
  <g>
    <rect style="fill: #ffffff" x="402.022" y="233" width="146.6" height="36" rx="20" ry="20"/>
    <rect style="fill: none; fill-opacity:0; stroke-width: 2; stroke: #000000" x="402.022" y="233" width="146.6" height="36" rx="20" ry="20"/>
    <text font-size="12.8" style="fill: #000000;text-anchor:middle;font-family:sans-serif;font-style:normal;font-weight:normal" x="475.322" y="254.9">
      <tspan x="475.322" y="254.9">Navigation Auswahl</tspan>
    </text>
  </g>
  <g>
    <line style="fill: none; fill-opacity:0; stroke-width: 2; stroke: #000000" x1="475.322" y1="269" x2="474.907" y2="285.004"/>
    <polygon style="fill: #000000" points="469.909,284.874 474.648,295 479.905,285.133 "/>
    <polygon style="fill: none; fill-opacity:0; stroke-width: 2; stroke: #000000" points="469.909,284.874 474.648,295 479.905,285.133 "/>
  </g>
  <g>
    <rect style="fill: #ffffff" x="401.022" y="355" width="149.5" height="52" rx="10" ry="10"/>
    <rect style="fill: none; fill-opacity:0; stroke-width: 2; stroke: #000000" x="401.022" y="355" width="149.5" height="52" rx="10" ry="10"/>
    <text font-size="12.8" style="fill: #000000;text-anchor:middle;font-family:sans-serif;font-style:normal;font-weight:normal" x="475.772" y="376.9">
      <tspan x="475.772" y="376.9">bankapp.mainview :</tspan>
      <tspan x="475.772" y="392.9">sidebarCtrl</tspan>
    </text>
  </g>
  <g>
    <line style="fill: none; fill-opacity:0; stroke-width: 2; stroke: #000000" x1="474.622" y1="330" x2="475.267" y2="344.012"/>
    <polygon style="fill: #000000" points="470.272,344.241 475.726,354.001 480.261,343.782 "/>
    <polygon style="fill: none; fill-opacity:0; stroke-width: 2; stroke: #000000" points="470.272,344.241 475.726,354.001 480.261,343.782 "/>
  </g>
  <g>
    <rect style="fill: #ffffff" x="401.522" y="435.4" width="149.5" height="52" rx="10" ry="10"/>
    <rect style="fill: none; fill-opacity:0; stroke-width: 2; stroke: #000000" x="401.522" y="435.4" width="149.5" height="52" rx="10" ry="10"/>
    <text font-size="12.8" style="fill: #000000;text-anchor:middle;font-family:sans-serif;font-style:normal;font-weight:normal" x="476.272" y="457.3">
      <tspan x="476.272" y="457.3">bankapp.mainview :</tspan>
      <tspan x="476.272" y="473.3">mainPageService</tspan>
    </text>
  </g>
  <g>
    <line style="fill: none; fill-opacity:0; stroke-width: 2; stroke: #000000" x1="475.772" y1="407" x2="476.078" y2="424.402"/>
    <polygon style="fill: #000000" points="471.079,424.49 476.254,434.4 481.078,424.314 "/>
    <polygon style="fill: none; fill-opacity:0; stroke-width: 2; stroke: #000000" points="471.079,424.49 476.254,434.4 481.078,424.314 "/>
  </g>
  <g>
    <polygon style="fill: #ffffff" points="417.022,599 523.122,599 535.122,611 535.122,633 417.022,633 "/>
    <polygon style="fill: none; fill-opacity:0; stroke-width: 2; stroke: #000000" points="417.022,599 523.122,599 535.122,611 535.122,633 417.022,633 "/>
    <polyline style="fill: none; fill-opacity:0; stroke-width: 1; stroke: #000000" points="523.122,599 523.122,611 535.122,611 "/>
    <text font-size="12.8" style="fill: #000000;text-anchor:start;font-family:monospace;font-style:normal;font-weight:normal" x="424.022" y="623.9">
      <tspan x="424.022" y="623.9">*Subpage.html</tspan>
    </text>
  </g>
  <g>
    <line style="fill: none; fill-opacity:0; stroke-width: 2; stroke-dasharray: 4; stroke: #000000" x1="476.272" y1="487.4" x2="476.683" y2="511.002"/>
    <polygon style="fill: #000000" points="471.683,511.089 476.857,521 481.682,510.915 "/>
    <polygon style="fill: none; fill-opacity:0; stroke-width: 2; stroke: #000000" points="471.683,511.089 476.857,521 481.682,510.915 "/>
  </g>
  <g>
    <polyline style="fill: none; fill-opacity:0; stroke-width: 2; stroke: #000000" points="550.522,381 571.522,381 571.522,313 556.222,313 "/>
    <polygon style="fill: #000000" points="556.222,308 546.222,313 556.222,318 "/>
    <polygon style="fill: none; fill-opacity:0; stroke-width: 2; stroke: #000000" points="556.222,308 546.222,313 556.222,318 "/>
  </g>
  <g>
    <rect style="fill: #ffffff" x="373.522" y="658.4" width="205.05" height="36" rx="10" ry="10"/>
    <rect style="fill: none; fill-opacity:0; stroke-width: 2; stroke: #000000" x="373.522" y="658.4" width="205.05" height="36" rx="10" ry="10"/>
    <text font-size="12.8" style="fill: #000000;text-anchor:middle;font-family:sans-serif;font-style:normal;font-weight:normal" x="476.047" y="680.3">
      <tspan x="476.047" y="680.3">Topickomponentenkontroller</tspan>
    </text>
  </g>
  <g>
    <line style="fill: none; fill-opacity:0; stroke-width: 2; stroke: #000000" x1="476.072" y1="633" x2="476.058" y2="647.4"/>
    <polygon style="fill: #000000" points="471.058,647.395 476.048,657.4 481.058,647.405 "/>
    <polygon style="fill: none; fill-opacity:0; stroke-width: 2; stroke: #000000" points="471.058,647.395 476.048,657.4 481.058,647.405 "/>
  </g>
  <g>
    <rect style="fill: #ffffff" x="393.522" y="719.4" width="162.75" height="52" rx="10" ry="10"/>
    <rect style="fill: none; fill-opacity:0; stroke-width: 2; stroke: #000000" x="393.522" y="719.4" width="162.75" height="52" rx="10" ry="10"/>
    <text font-size="12.8" style="fill: #000000;text-anchor:middle;font-family:sans-serif;font-style:normal;font-weight:normal" x="474.897" y="741.3">
      <tspan x="474.897" y="741.3">bankapp.subview : </tspan>
      <tspan x="474.897" y="757.3">subcomponentService</tspan>
    </text>
  </g>
  <g>
    <rect style="fill: #ffffff" x="596.522" y="719" width="166.35" height="52" rx="10" ry="10"/>
    <rect style="fill: none; fill-opacity:0; stroke-width: 2; stroke: #000000" x="596.522" y="719" width="166.35" height="52" rx="10" ry="10"/>
    <text font-size="12.8" style="fill: #000000;text-anchor:middle;font-family:sans-serif;font-style:normal;font-weight:normal" x="679.697" y="740.9">
      <tspan x="679.697" y="740.9">bankapp.breadcrumb :</tspan>
      <tspan x="679.697" y="756.9">breadcrumbService</tspan>
    </text>
  </g>
  <g>
    <polygon style="fill: #ffffff" points="602.522,585 747.122,585 759.122,597 759.122,619 602.522,619 "/>
    <polygon style="fill: none; fill-opacity:0; stroke-width: 2; stroke: #000000" points="602.522,585 747.122,585 759.122,597 759.122,619 602.522,619 "/>
    <polyline style="fill: none; fill-opacity:0; stroke-width: 1; stroke: #000000" points="747.122,585 747.122,597 759.122,597 "/>
    <text font-size="12.8" style="fill: #000000;text-anchor:start;font-family:monospace;font-style:normal;font-weight:normal" x="609.522" y="609.9">
      <tspan x="609.522" y="609.9">mainSearchbar.html</tspan>
    </text>
  </g>
  <g>
    <rect style="fill: #ffffff" x="598.022" y="643.4" width="166.35" height="52" rx="10" ry="10"/>
    <rect style="fill: none; fill-opacity:0; stroke-width: 2; stroke: #000000" x="598.022" y="643.4" width="166.35" height="52" rx="10" ry="10"/>
    <text font-size="12.8" style="fill: #000000;text-anchor:middle;font-family:sans-serif;font-style:normal;font-weight:normal" x="681.197" y="665.3">
      <tspan x="681.197" y="665.3">bankapp.breadcrumb :</tspan>
      <tspan x="681.197" y="681.3">breadcrumbCtrl</tspan>
    </text>
  </g>
  <g>
    <line style="fill: none; fill-opacity:0; stroke-width: 2; stroke-dasharray: 4; stroke: #000000" x1="679.697" y1="719" x2="680.499" y2="706.378"/>
    <polygon style="fill: #000000" points="685.489,706.695 681.134,696.398 675.509,706.061 "/>
    <polygon style="fill: none; fill-opacity:0; stroke-width: 2; stroke: #000000" points="685.489,706.695 681.134,696.398 675.509,706.061 "/>
  </g>
  <g>
    <line style="fill: none; fill-opacity:0; stroke-width: 2; stroke: #000000" x1="681.197" y1="643.4" x2="680.991" y2="629.999"/>
    <polygon style="fill: #000000" points="685.99,629.922 680.837,620 675.992,630.076 "/>
    <polygon style="fill: none; fill-opacity:0; stroke-width: 2; stroke: #000000" points="685.99,629.922 680.837,620 675.992,630.076 "/>
  </g>
  <g>
    <line style="fill: none; fill-opacity:0; stroke-width: 2; stroke: #000000" x1="476.047" y1="694.4" x2="475.402" y2="708.412"/>
    <polygon style="fill: #000000" points="470.408,708.182 474.943,718.401 480.397,708.641 "/>
    <polygon style="fill: none; fill-opacity:0; stroke-width: 2; stroke: #000000" points="470.408,708.182 474.943,718.401 480.397,708.641 "/>
  </g>
  <g>
    <rect style="fill: #ffffff" x="372.522" y="796.4" width="205.05" height="36" rx="10" ry="10"/>
    <rect style="fill: none; fill-opacity:0; stroke-width: 2; stroke: #000000" x="372.522" y="796.4" width="205.05" height="36" rx="10" ry="10"/>
    <text font-size="12.8" style="fill: #000000;text-anchor:middle;font-family:sans-serif;font-style:normal;font-weight:normal" x="475.047" y="818.3">
      <tspan x="475.047" y="818.3">Topickomponentenkontroller</tspan>
    </text>
  </g>
  <g>
    <line style="fill: none; fill-opacity:0; stroke-width: 2; stroke-dasharray: 4; stroke: #000000" x1="474.897" y1="771.4" x2="474.981" y2="785.4"/>
    <polygon style="fill: #000000" points="469.981,785.43 475.041,795.4 479.981,785.37 "/>
    <polygon style="fill: none; fill-opacity:0; stroke-width: 2; stroke: #000000" points="469.981,785.43 475.041,795.4 479.981,785.37 "/>
  </g>
  <g>
    <polygon style="fill: #ffffff" points="411.522,854.4 525.322,854.4 537.322,866.4 537.322,888.4 411.522,888.4 "/>
    <polygon style="fill: none; fill-opacity:0; stroke-width: 2; stroke: #000000" points="411.522,854.4 525.322,854.4 537.322,866.4 537.322,888.4 411.522,888.4 "/>
    <polyline style="fill: none; fill-opacity:0; stroke-width: 1; stroke: #000000" points="525.322,854.4 525.322,866.4 537.322,866.4 "/>
    <text font-size="12.8" style="fill: #000000;text-anchor:start;font-family:monospace;font-style:normal;font-weight:normal" x="418.522" y="879.3">
      <tspan x="418.522" y="879.3">übersichtsHTML</tspan>
    </text>
  </g>
  <g>
    <line style="fill: none; fill-opacity:0; stroke-width: 2; stroke: #000000" x1="475.047" y1="832.4" x2="474.887" y2="842.406"/>
    <polygon style="fill: #000000" points="469.887,842.326 474.726,852.405 479.886,842.486 "/>
    <polygon style="fill: none; fill-opacity:0; stroke-width: 2; stroke: #000000" points="469.887,842.326 474.726,852.405 479.886,842.486 "/>
  </g>
  <g>
    <rect style="fill: #ffffff" x="162.521" y="796.4" width="202.3" height="36" rx="10" ry="10"/>
    <rect style="fill: none; fill-opacity:0; stroke-width: 2; stroke: #000000" x="162.521" y="796.4" width="202.3" height="36" rx="10" ry="10"/>
    <text font-size="12.8" style="fill: #000000;text-anchor:middle;font-family:sans-serif;font-style:normal;font-weight:normal" x="263.671" y="818.3">
      <tspan x="263.671" y="818.3">Übersichtsansichtskontroller</tspan>
    </text>
  </g>
  <g>
    <polyline style="fill: none; fill-opacity:0; stroke-width: 2; stroke-dasharray: 8; stroke: #000000" points="263.671,778.164 263.671,765.9 264.071,765.9 264.071,751.4 "/>
    <polygon style="fill: #ffffff" points="255.671,778.164 263.671,794.164 271.671,778.164 "/>
    <polygon style="fill: none; fill-opacity:0; stroke-width: 2; stroke: #000000" points="255.671,778.164 263.671,794.164 271.671,778.164 "/>
  </g>
  <g>
    <ellipse style="fill: #ffffff" cx="264.071" cy="719.4" rx="50.55" ry="32"/>
    <ellipse style="fill: none; fill-opacity:0; stroke-width: 2; stroke: #000000" cx="264.071" cy="719.4" rx="50.55" ry="32"/>
    <text font-size="12.8" style="fill: #000000;text-anchor:middle;font-family:sans-serif;font-style:normal;font-weight:normal" x="264.071" y="715.3">
      <tspan x="264.071" y="715.3">Rest</tspan>
      <tspan x="264.071" y="731.3">Abfrage</tspan>
    </text>
  </g>
  <g>
    <polyline style="fill: none; fill-opacity:0; stroke-width: 2; stroke: #000000" points="263.671,843.4 263.671,871.4 400.522,871.4 "/>
    <polygon style="fill: #000000" points="268.671,843.4 263.671,833.4 258.671,843.4 "/>
    <polygon style="fill: none; fill-opacity:0; stroke-width: 2; stroke: #000000" points="268.671,843.4 263.671,833.4 258.671,843.4 "/>
    <polygon style="fill: #000000" points="400.522,876.4 410.522,871.4 400.522,866.4 "/>
    <polygon style="fill: none; fill-opacity:0; stroke-width: 2; stroke: #000000" points="400.522,876.4 410.522,871.4 400.522,866.4 "/>
  </g>
  <g>
    <rect style="fill: #ffffff" x="386.624" y="522" width="180.5" height="52" rx="10" ry="10"/>
    <rect style="fill: none; fill-opacity:0; stroke-width: 2; stroke: #000000" x="386.624" y="522" width="180.5" height="52" rx="10" ry="10"/>
    <text font-size="12.8" style="fill: #000000;text-anchor:middle;font-family:sans-serif;font-style:normal;font-weight:normal" x="476.874" y="543.9">
      <tspan x="476.874" y="543.9">bankapp.mainview :</tspan>
      <tspan x="476.874" y="559.9">subComponentController</tspan>
    </text>
  </g>
  <g>
    <line style="fill: none; fill-opacity:0; stroke-width: 2; stroke: #000000" x1="476.874" y1="574" x2="476.425" y2="588.006"/>
    <polygon style="fill: #000000" points="471.427,587.845 476.104,598.001 481.422,588.166 "/>
    <polygon style="fill: none; fill-opacity:0; stroke-width: 2; stroke: #000000" points="471.427,587.845 476.104,598.001 481.422,588.166 "/>
  </g>
  <g>
    <polyline style="fill: none; fill-opacity:0; stroke-width: 2; stroke: #000000" points="556.272,745.4 576.397,745.4 576.397,745 585.522,745 "/>
    <polygon style="fill: #000000" points="585.522,750 595.522,745 585.522,740 "/>
    <polygon style="fill: none; fill-opacity:0; stroke-width: 2; stroke: #000000" points="585.522,750 595.522,745 585.522,740 "/>
  </g>
  <g>
    <rect style="fill: #ffffff" x="603" y="806" width="260" height="103"/>
    <rect style="fill: none; fill-opacity:0; stroke-width: 2; stroke: #000000" x="603" y="806" width="260" height="103"/>
  </g>
  <g>
    <line style="fill: none; fill-opacity:0; stroke-width: 2; stroke: #000000" x1="737.4" y1="841" x2="815.001" y2="841.876"/>
    <polygon style="fill: #000000" points="814.944,846.876 825,841.989 815.057,836.876 "/>
    <polygon style="fill: none; fill-opacity:0; stroke-width: 2; stroke: #000000" points="814.944,846.876 825,841.989 815.057,836.876 "/>
  </g>
  <g>
    <line style="fill: none; fill-opacity:0; stroke-width: 2; stroke-dasharray: 4; stroke: #000000" x1="737.4" y1="876" x2="816.5" y2="875.665"/>
    <polygon style="fill: #000000" points="816.521,880.665 826.5,875.622 816.479,870.665 "/>
    <polygon style="fill: none; fill-opacity:0; stroke-width: 2; stroke: #000000" points="816.521,880.665 826.5,875.622 816.479,870.665 "/>
  </g>
  <text font-size="12.7998" style="fill: #000000;text-anchor:start;font-family:sans-serif;font-style:normal;font-weight:normal" x="625.102" y="845">
    <tspan x="625.102" y="845">Datensendung</tspan>
  </text>
  <text font-size="12.7998" style="fill: #000000;text-anchor:start;font-family:sans-serif;font-style:normal;font-weight:normal" x="628.102" y="879">
    <tspan x="628.102" y="879">Datenabfrage</tspan>
  </text>
  <g>
    <rect style="fill: #ffffff" x="620.102" y="786" width="109" height="36"/>
    <rect style="fill: none; fill-opacity:0; stroke-width: 2; stroke: #000000" x="620.102" y="786" width="109" height="36"/>
  </g>
  <text font-size="12.7998" style="fill: #000000;text-anchor:middle;font-family:sans-serif;font-style:normal;font-weight:normal" x="674.602" y="808.45">
    <tspan x="674.602" y="808.45">Legende</tspan>
  </text>
</svg>
