<?xml version="1.0" encoding="UTF-8" standalone="no"?>
<!DOCTYPE svg PUBLIC "-//W3C//DTD SVG 1.0//EN" "http://www.w3.org/TR/2001/PR-SVG-20010719/DTD/svg10.dtd">
<svg width="41cm" height="39cm" viewBox="52 46 814 780" xmlns="http://www.w3.org/2000/svg" xmlns:xlink="http://www.w3.org/1999/xlink">
  <g>
    <rect style="fill: #ffffff" x="397.5" y="47.4" width="162.85" height="36" rx="20" ry="20"/>
    <rect style="fill: none; fill-opacity:0; stroke-width: 2; stroke: #000000" x="397.5" y="47.4" width="162.85" height="36" rx="20" ry="20"/>
    <text font-size="12.8" style="fill: #000000;text-anchor:middle;font-family:sans-serif;font-style:normal;font-weight:normal" x="478.925" y="69.3">
      <tspan x="478.925" y="69.3">Weiterleitungsanfrage</tspan>
    </text>
  </g>
  <g>
    <polygon style="fill: #ffffff" points="399.5,113.4 544.1,113.4 556.1,125.4 556.1,147.4 399.5,147.4 "/>
    <polygon style="fill: none; fill-opacity:0; stroke-width: 2; stroke: #000000" points="399.5,113.4 544.1,113.4 556.1,125.4 556.1,147.4 399.5,147.4 "/>
    <polyline style="fill: none; fill-opacity:0; stroke-width: 1; stroke: #000000" points="544.1,113.4 544.1,125.4 556.1,125.4 "/>
    <text font-size="12.8" style="fill: #000000;text-anchor:start;font-family:monospace;font-style:normal;font-weight:normal" x="406.5" y="138.3">
      <tspan x="406.5" y="138.3">EinzelansichtsHTML</tspan>
    </text>
  </g>
  <g>
    <rect style="fill: #ffffff" x="390.5" y="177.4" width="172.55" height="36" rx="10" ry="10"/>
    <rect style="fill: none; fill-opacity:0; stroke-width: 2; stroke: #000000" x="390.5" y="177.4" width="172.55" height="36" rx="10" ry="10"/>
    <text font-size="12.8" style="fill: #000000;text-anchor:middle;font-family:sans-serif;font-style:normal;font-weight:normal" x="476.775" y="199.3">
      <tspan x="476.775" y="199.3">Einzelansichtskontroller</tspan>
    </text>
  </g>
  <g>
    <line style="fill: none; fill-opacity:0; stroke-width: 2; stroke: #000000" x1="477.408" y1="148.404" x2="477.016" y2="166.403"/>
    <polygon style="fill: #000000" points="472.017,166.294 476.798,176.4 482.014,166.512 "/>
    <polygon style="fill: none; fill-opacity:0; stroke-width: 2; stroke: #000000" points="472.017,166.294 476.798,176.4 482.014,166.512 "/>
  </g>
  <g>
    <line style="fill: none; fill-opacity:0; stroke-width: 2; stroke: #000000" x1="478.925" y1="83.4" x2="478.212" y2="102.408"/>
    <polygon style="fill: #000000" points="473.216,102.22 477.837,112.401 483.209,102.595 "/>
    <polygon style="fill: none; fill-opacity:0; stroke-width: 2; stroke: #000000" points="473.216,102.22 477.837,112.401 483.209,102.595 "/>
  </g>
  <g>
    <rect style="fill: #ffffff" x="402.5" y="304.4" width="149.5" height="52" rx="10" ry="10"/>
    <rect style="fill: none; fill-opacity:0; stroke-width: 2; stroke: #000000" x="402.5" y="304.4" width="149.5" height="52" rx="10" ry="10"/>
    <text font-size="12.8" style="fill: #000000;text-anchor:middle;font-family:sans-serif;font-style:normal;font-weight:normal" x="477.25" y="326.3">
      <tspan x="477.25" y="326.3">bankapp.mainview :</tspan>
      <tspan x="477.25" y="342.3">mainPageService</tspan>
    </text>
  </g>
  <g>
    <polygon style="fill: #ffffff" points="233.791,375.736 362.991,375.736 374.991,387.736 374.991,409.736 233.791,409.736 "/>
    <polygon style="fill: none; fill-opacity:0; stroke-width: 2; stroke: #000000" points="233.791,375.736 362.991,375.736 374.991,387.736 374.991,409.736 233.791,409.736 "/>
    <polyline style="fill: none; fill-opacity:0; stroke-width: 1; stroke: #000000" points="362.991,375.736 362.991,387.736 374.991,387.736 "/>
    <text font-size="12.8" style="fill: #000000;text-anchor:start;font-family:monospace;font-style:normal;font-weight:normal" x="240.791" y="400.636">
      <tspan x="240.791" y="400.636">mainSidebar.html</tspan>
    </text>
  </g>
  <g>
    <rect style="fill: #ffffff" x="230.791" y="305.206" width="149.5" height="52" rx="10" ry="10"/>
    <rect style="fill: none; fill-opacity:0; stroke-width: 2; stroke: #000000" x="230.791" y="305.206" width="149.5" height="52" rx="10" ry="10"/>
    <text font-size="12.8" style="fill: #000000;text-anchor:middle;font-family:sans-serif;font-style:normal;font-weight:normal" x="305.541" y="327.106">
      <tspan x="305.541" y="327.106">bankapp.mainview :</tspan>
      <tspan x="305.541" y="343.106">sidebarCtrl</tspan>
    </text>
  </g>
  <g>
    <line style="fill: none; fill-opacity:0; stroke-width: 2; stroke: #000000" x1="304.391" y1="375.736" x2="304.859" y2="368.185"/>
    <polygon style="fill: #000000" points="309.85,368.495 305.479,358.204 299.869,367.875 "/>
    <polygon style="fill: none; fill-opacity:0; stroke-width: 2; stroke: #000000" points="309.85,368.495 305.479,358.204 299.869,367.875 "/>
  </g>
  <g>
    <polygon style="fill: #ffffff" points="457,260 477,240 497,260 477,280 "/>
    <polygon style="fill: none; fill-opacity:0; stroke-width: 2; stroke: #000000" points="457,260 477,240 497,260 477,280 "/>
  </g>
  <g>
    <line style="fill: none; fill-opacity:0; stroke-width: 2; stroke: #000000" x1="476.776" y1="213.4" x2="476.907" y2="229"/>
    <polygon style="fill: #000000" points="471.908,229.042 476.992,239 481.907,228.958 "/>
    <polygon style="fill: none; fill-opacity:0; stroke-width: 2; stroke: #000000" points="471.908,229.042 476.992,239 481.907,228.958 "/>
  </g>
  <g>
    <line style="fill: none; fill-opacity:0; stroke-width: 2; stroke: #000000" x1="477" y1="280" x2="477.137" y2="293.401"/>
    <polygon style="fill: #000000" points="472.138,293.452 477.24,303.4 482.137,293.349 "/>
    <polygon style="fill: none; fill-opacity:0; stroke-width: 2; stroke: #000000" points="472.138,293.452 477.24,303.4 482.137,293.349 "/>
  </g>
  <g>
    <rect style="fill: #ffffff" x="53.2102" y="346.663" width="130.85" height="52" rx="10" ry="10"/>
    <rect style="fill: none; fill-opacity:0; stroke-width: 2; stroke: #000000" x="53.2102" y="346.663" width="130.85" height="52" rx="10" ry="10"/>
    <text font-size="12.8" style="fill: #000000;text-anchor:middle;font-family:sans-serif;font-style:normal;font-weight:normal" x="118.635" y="368.563">
      <tspan x="118.635" y="368.563">bankapp.search :</tspan>
      <tspan x="118.635" y="384.563">searchService</tspan>
    </text>
  </g>
  <g>
    <polyline style="fill: none; fill-opacity:0; stroke-width: 2; stroke: #000000" points="457,260 118.635,260 118.635,335.663 "/>
    <polygon style="fill: #000000" points="113.635,335.663 118.635,345.663 123.635,335.663 "/>
    <polygon style="fill: none; fill-opacity:0; stroke-width: 2; stroke: #000000" points="113.635,335.663 118.635,345.663 123.635,335.663 "/>
  </g>
  <g>
    <rect style="fill: #ffffff" x="402.839" y="388.302" width="149.5" height="52" rx="10" ry="10"/>
    <rect style="fill: none; fill-opacity:0; stroke-width: 2; stroke: #000000" x="402.839" y="388.302" width="149.5" height="52" rx="10" ry="10"/>
    <text font-size="12.8" style="fill: #000000;text-anchor:middle;font-family:sans-serif;font-style:normal;font-weight:normal" x="477.589" y="410.202">
      <tspan x="477.589" y="410.202">bankapp.mainview :</tspan>
      <tspan x="477.589" y="426.202">SubComponentCtrl</tspan>
    </text>
  </g>
  <g>
    <polygon style="fill: #ffffff" points="419,461.366 525.1,461.366 537.1,473.366 537.1,495.366 419,495.366 "/>
    <polygon style="fill: none; fill-opacity:0; stroke-width: 2; stroke: #000000" points="419,461.366 525.1,461.366 537.1,473.366 537.1,495.366 419,495.366 "/>
    <polyline style="fill: none; fill-opacity:0; stroke-width: 1; stroke: #000000" points="525.1,461.366 525.1,473.366 537.1,473.366 "/>
    <text font-size="12.8" style="fill: #000000;text-anchor:start;font-family:monospace;font-style:normal;font-weight:normal" x="426" y="486.266">
      <tspan x="426" y="486.266">*Subpage.html</tspan>
    </text>
  </g>
  <g>
    <line style="fill: none; fill-opacity:0; stroke-width: 2; stroke-dasharray: 4; stroke: #000000" x1="477.25" y1="356.4" x2="477.472" y2="377.302"/>
    <polygon style="fill: #000000" points="472.472,377.355 477.578,387.302 482.472,377.249 "/>
    <polygon style="fill: none; fill-opacity:0; stroke-width: 2; stroke: #000000" points="472.472,377.355 477.578,387.302 482.472,377.249 "/>
  </g>
  <g>
    <line style="fill: none; fill-opacity:0; stroke-width: 2; stroke: #000000" x1="477.589" y1="440.302" x2="477.809" y2="450.368"/>
    <polygon style="fill: #000000" points="472.81,450.478 478.028,460.366 482.808,450.259 "/>
    <polygon style="fill: none; fill-opacity:0; stroke-width: 2; stroke: #000000" points="472.81,450.478 478.028,460.366 482.808,450.259 "/>
  </g>
  <g>
    <rect style="fill: #ffffff" x="375.5" y="519.017" width="205.05" height="36" rx="10" ry="10"/>
    <rect style="fill: none; fill-opacity:0; stroke-width: 2; stroke: #000000" x="375.5" y="519.017" width="205.05" height="36" rx="10" ry="10"/>
    <text font-size="12.8" style="fill: #000000;text-anchor:middle;font-family:sans-serif;font-style:normal;font-weight:normal" x="478.025" y="540.917">
      <tspan x="478.025" y="540.917">Topickomponentenkontroller</tspan>
    </text>
  </g>
  <g>
    <line style="fill: none; fill-opacity:0; stroke-width: 2; stroke: #000000" x1="478.05" y1="495.366" x2="478.037" y2="508.017"/>
    <polygon style="fill: #000000" points="473.037,508.012 478.026,518.017 483.037,508.023 "/>
    <polygon style="fill: none; fill-opacity:0; stroke-width: 2; stroke: #000000" points="473.037,508.012 478.026,518.017 483.037,508.023 "/>
  </g>
  <g>
    <rect style="fill: #ffffff" x="396.5" y="582.017" width="162.75" height="52" rx="10" ry="10"/>
    <rect style="fill: none; fill-opacity:0; stroke-width: 2; stroke: #000000" x="396.5" y="582.017" width="162.75" height="52" rx="10" ry="10"/>
    <text font-size="12.8" style="fill: #000000;text-anchor:middle;font-family:sans-serif;font-style:normal;font-weight:normal" x="477.875" y="603.917">
      <tspan x="477.875" y="603.917">bankapp.subview : </tspan>
      <tspan x="477.875" y="619.917">subcomponentService</tspan>
    </text>
  </g>
  <g>
    <polygon style="fill: #ffffff" points="458.384,680.714 478.384,660.714 498.384,680.714 478.384,700.714 "/>
    <polygon style="fill: none; fill-opacity:0; stroke-width: 2; stroke: #000000" points="458.384,680.714 478.384,660.714 498.384,680.714 478.384,700.714 "/>
  </g>
  <g>
    <rect style="fill: #ffffff" x="597.5" y="580.068" width="166.35" height="52" rx="10" ry="10"/>
    <rect style="fill: none; fill-opacity:0; stroke-width: 2; stroke: #000000" x="597.5" y="580.068" width="166.35" height="52" rx="10" ry="10"/>
    <text font-size="12.8" style="fill: #000000;text-anchor:middle;font-family:sans-serif;font-style:normal;font-weight:normal" x="680.675" y="601.968">
      <tspan x="680.675" y="601.968">bankapp.breadcrumb :</tspan>
      <tspan x="680.675" y="617.968">breadcrumbService</tspan>
    </text>
  </g>
  <g>
    <line style="fill: none; fill-opacity:0; stroke-width: 2; stroke: #000000" x1="559.25" y1="608.017" x2="586.514" y2="606.628"/>
    <polygon style="fill: #000000" points="586.769,611.622 596.501,606.119 586.26,601.635 "/>
    <polygon style="fill: none; fill-opacity:0; stroke-width: 2; stroke: #000000" points="586.769,611.622 596.501,606.119 586.26,601.635 "/>
  </g>
  <g>
    <polygon style="fill: #ffffff" points="604.794,433.506 749.394,433.506 761.394,445.506 761.394,467.506 604.794,467.506 "/>
    <polygon style="fill: none; fill-opacity:0; stroke-width: 2; stroke: #000000" points="604.794,433.506 749.394,433.506 761.394,445.506 761.394,467.506 604.794,467.506 "/>
    <polyline style="fill: none; fill-opacity:0; stroke-width: 1; stroke: #000000" points="749.394,433.506 749.394,445.506 761.394,445.506 "/>
    <text font-size="12.8" style="fill: #000000;text-anchor:start;font-family:monospace;font-style:normal;font-weight:normal" x="611.794" y="458.406">
      <tspan x="611.794" y="458.406">mainSearchbar.html</tspan>
    </text>
  </g>
  <g>
    <rect style="fill: #ffffff" x="597.986" y="497.268" width="166.35" height="52" rx="10" ry="10"/>
    <rect style="fill: none; fill-opacity:0; stroke-width: 2; stroke: #000000" x="597.986" y="497.268" width="166.35" height="52" rx="10" ry="10"/>
    <text font-size="12.8" style="fill: #000000;text-anchor:middle;font-family:sans-serif;font-style:normal;font-weight:normal" x="681.161" y="519.168">
      <tspan x="681.161" y="519.168">bankapp.breadcrumb :</tspan>
      <tspan x="681.161" y="535.168">breadcrumbCtrl</tspan>
    </text>
  </g>
  <g>
    <line style="fill: none; fill-opacity:0; stroke-width: 2; stroke: #000000" x1="680.675" y1="580.068" x2="680.997" y2="558.499"/>
    <polygon style="fill: #000000" points="685.996,558.573 681.146,548.5 675.997,558.424 "/>
    <polygon style="fill: none; fill-opacity:0; stroke-width: 2; stroke: #000000" points="685.996,558.573 681.146,548.5 675.997,558.424 "/>
  </g>
  <g>
    <line style="fill: none; fill-opacity:0; stroke-width: 2; stroke: #000000" x1="681.161" y1="497.268" x2="682.381" y2="478.483"/>
    <polygon style="fill: #000000" points="687.37,478.807 683.029,468.504 677.391,478.159 "/>
    <polygon style="fill: none; fill-opacity:0; stroke-width: 2; stroke: #000000" points="687.37,478.807 683.029,468.504 677.391,478.159 "/>
  </g>
  <g>
    <line style="fill: none; fill-opacity:0; stroke-width: 2; stroke: #000000" x1="478.025" y1="555.017" x2="477.936" y2="571.017"/>
    <polygon style="fill: #000000" points="472.936,570.99 477.881,581.017 482.936,571.045 "/>
    <polygon style="fill: none; fill-opacity:0; stroke-width: 2; stroke: #000000" points="472.936,570.99 477.881,581.017 482.936,571.045 "/>
  </g>
  <g>
    <rect style="fill: #ffffff" x="373.732" y="730.617" width="205.05" height="36" rx="10" ry="10"/>
    <rect style="fill: none; fill-opacity:0; stroke-width: 2; stroke: #000000" x="373.732" y="730.617" width="205.05" height="36" rx="10" ry="10"/>
    <text font-size="12.8" style="fill: #000000;text-anchor:middle;font-family:sans-serif;font-style:normal;font-weight:normal" x="476.257" y="752.517">
      <tspan x="476.257" y="752.517">Topickomponentenkontroller</tspan>
    </text>
  </g>
  <g>
    <polygon style="fill: #ffffff" points="414.5,790.701 528.3,790.701 540.3,802.701 540.3,824.701 414.5,824.701 "/>
    <polygon style="fill: none; fill-opacity:0; stroke-width: 2; stroke: #000000" points="414.5,790.701 528.3,790.701 540.3,802.701 540.3,824.701 414.5,824.701 "/>
    <polyline style="fill: none; fill-opacity:0; stroke-width: 1; stroke: #000000" points="528.3,790.701 528.3,802.701 540.3,802.701 "/>
    <text font-size="12.8" style="fill: #000000;text-anchor:start;font-family:monospace;font-style:normal;font-weight:normal" x="421.5" y="815.601">
      <tspan x="421.5" y="815.601">übersichtsHTML</tspan>
    </text>
  </g>
  <g>
    <line style="fill: none; fill-opacity:0; stroke-width: 2; stroke: #000000" x1="476.257" y1="766.617" x2="476.594" y2="778.711"/>
    <polygon style="fill: #000000" points="471.596,778.85 476.872,788.707 481.592,778.572 "/>
    <polygon style="fill: none; fill-opacity:0; stroke-width: 2; stroke: #000000" points="471.596,778.85 476.872,788.707 481.592,778.572 "/>
  </g>
  <g>
    <rect style="fill: #ffffff" x="145.274" y="732.656" width="202.3" height="36" rx="10" ry="10"/>
    <rect style="fill: none; fill-opacity:0; stroke-width: 2; stroke: #000000" x="145.274" y="732.656" width="202.3" height="36" rx="10" ry="10"/>
    <text font-size="12.8" style="fill: #000000;text-anchor:middle;font-family:sans-serif;font-style:normal;font-weight:normal" x="246.424" y="754.556">
      <tspan x="246.424" y="754.556">Übersichtsansichtskontroller</tspan>
    </text>
  </g>
  <g>
    <polyline style="fill: none; fill-opacity:0; stroke-width: 2; stroke-dasharray: 8; stroke: #000000" points="246.424,714.42 246.424,692.576 246.824,692.576 246.824,668.495 "/>
    <polygon style="fill: #ffffff" points="238.424,714.42 246.424,730.42 254.424,714.42 "/>
    <polygon style="fill: none; fill-opacity:0; stroke-width: 2; stroke: #000000" points="238.424,714.42 246.424,730.42 254.424,714.42 "/>
  </g>
  <g>
    <ellipse style="fill: #ffffff" cx="246.824" cy="636.495" rx="50.55" ry="32"/>
    <ellipse style="fill: none; fill-opacity:0; stroke-width: 2; stroke: #000000" cx="246.824" cy="636.495" rx="50.55" ry="32"/>
    <text font-size="12.8" style="fill: #000000;text-anchor:middle;font-family:sans-serif;font-style:normal;font-weight:normal" x="246.824" y="632.395">
      <tspan x="246.824" y="632.395">Rest</tspan>
      <tspan x="246.824" y="648.395">Abfrage</tspan>
    </text>
  </g>
  <g>
    <polyline style="fill: none; fill-opacity:0; stroke-width: 2; stroke: #000000" points="246.424,779.656 246.424,807.701 403.5,807.701 "/>
    <polygon style="fill: #000000" points="251.424,779.656 246.424,769.656 241.424,779.656 "/>
    <polygon style="fill: none; fill-opacity:0; stroke-width: 2; stroke: #000000" points="251.424,779.656 246.424,769.656 241.424,779.656 "/>
    <polygon style="fill: #000000" points="403.5,812.701 413.5,807.701 403.5,802.701 "/>
    <polygon style="fill: none; fill-opacity:0; stroke-width: 2; stroke: #000000" points="403.5,812.701 413.5,807.701 403.5,802.701 "/>
  </g>
  <g>
    <polyline style="fill: none; fill-opacity:0; stroke-width: 2; stroke: #000000" points="118.635,398.663 118.635,750.656 134.274,750.656 "/>
    <polygon style="fill: #000000" points="134.274,755.656 144.274,750.656 134.274,745.656 "/>
    <polygon style="fill: none; fill-opacity:0; stroke-width: 2; stroke: #000000" points="134.274,755.656 144.274,750.656 134.274,745.656 "/>
  </g>
  <g>
    <polyline style="fill: none; fill-opacity:0; stroke-width: 2; stroke: #000000" points="229.782,331.206 208.782,331.206 208.782,392.736 222.791,392.736 "/>
    <polygon style="fill: #000000" points="222.791,397.736 232.791,392.736 222.791,387.736 "/>
    <polygon style="fill: none; fill-opacity:0; stroke-width: 2; stroke: #000000" points="222.791,397.736 232.791,392.736 222.791,387.736 "/>
  </g>
  <g>
    <line style="fill: none; fill-opacity:0; stroke-width: 2; stroke-dasharray: 4; stroke: #000000" x1="402.5" y1="330.4" x2="391.284" y2="330.807"/>
    <polygon style="fill: #000000" points="391.102,325.81 381.29,331.17 391.465,335.804 "/>
    <polygon style="fill: none; fill-opacity:0; stroke-width: 2; stroke: #000000" points="391.102,325.81 381.29,331.17 391.465,335.804 "/>
  </g>
  <g>
    <line style="fill: none; fill-opacity:0; stroke-width: 2; stroke-dasharray: 4; stroke: #000000" x1="478.384" y1="700.714" x2="477.589" y2="718.623"/>
    <polygon style="fill: #000000" points="472.594,718.402 477.145,728.614 482.584,718.845 "/>
    <polygon style="fill: none; fill-opacity:0; stroke-width: 2; stroke: #000000" points="472.594,718.402 477.145,728.614 482.584,718.845 "/>
  </g>
  <g>
    <line style="fill: none; fill-opacity:0; stroke-width: 2; stroke-dasharray: 4; stroke: #000000" x1="477.875" y1="634.017" x2="478.174" y2="649.716"/>
    <polygon style="fill: #000000" points="473.175,649.811 478.365,659.714 483.173,649.621 "/>
    <polygon style="fill: none; fill-opacity:0; stroke-width: 2; stroke: #000000" points="473.175,649.811 478.365,659.714 483.173,649.621 "/>
  </g>
  <g>
    <path style="fill: none; fill-opacity:0; stroke-width: 2; stroke-dasharray: 4; stroke: #000000" d="M 458.384,680.714 A 103.605,103.605 0 0 0 353.333,723.338"/>
    <polygon style="fill: #000000" points="348.468,720.606 348.054,731.779 357.241,725.406 "/>
    <polygon style="fill: none; fill-opacity:0; stroke-width: 2; stroke: #000000" points="348.468,720.606 348.054,731.779 357.241,725.406 "/>
  </g>
  <g>
    <rect style="fill: #ffffff" x="604.308" y="717.993" width="260" height="103"/>
    <rect style="fill: none; fill-opacity:0; stroke-width: 2; stroke: #000000" x="604.308" y="717.993" width="260" height="103"/>
  </g>
  <g>
    <line style="fill: none; fill-opacity:0; stroke-width: 2; stroke: #000000" x1="738.708" y1="752.993" x2="816.308" y2="753.869"/>
    <polygon style="fill: #000000" points="816.252,758.868 826.308,753.981 816.365,748.869 "/>
    <polygon style="fill: none; fill-opacity:0; stroke-width: 2; stroke: #000000" points="816.252,758.868 826.308,753.981 816.365,748.869 "/>
  </g>
  <g>
    <line style="fill: none; fill-opacity:0; stroke-width: 2; stroke-dasharray: 4; stroke: #000000" x1="738.708" y1="787.993" x2="817.808" y2="787.657"/>
    <polygon style="fill: #000000" points="817.829,792.657 827.808,787.615 817.787,782.657 "/>
    <polygon style="fill: none; fill-opacity:0; stroke-width: 2; stroke: #000000" points="817.829,792.657 827.808,787.615 817.787,782.657 "/>
  </g>
  <text font-size="12.7998" style="fill: #000000;text-anchor:start;font-family:sans-serif;font-style:normal;font-weight:normal" x="626.41" y="756.993">
    <tspan x="626.41" y="756.993">Datensendung</tspan>
  </text>
  <text font-size="12.7998" style="fill: #000000;text-anchor:start;font-family:sans-serif;font-style:normal;font-weight:normal" x="629.41" y="790.993">
    <tspan x="629.41" y="790.993">Datenabfrage</tspan>
  </text>
  <g>
    <rect style="fill: #ffffff" x="621.41" y="697.993" width="109" height="36"/>
    <rect style="fill: none; fill-opacity:0; stroke-width: 2; stroke: #000000" x="621.41" y="697.993" width="109" height="36"/>
  </g>
  <text font-size="12.7998" style="fill: #000000;text-anchor:middle;font-family:sans-serif;font-style:normal;font-weight:normal" x="675.91" y="720.443">
    <tspan x="675.91" y="720.443">Legende</tspan>
  </text>
</svg>
